<svg xmlns="http://www.w3.org/2000/svg" xmlns:xlink="http://www.w3.org/1999/xlink" viewBox="0 0 842 648.41"><defs><style>.cls-1{fill:none;}.cls-2{isolation:isolate;}.cls-3{clip-path:url(#clip-path);}.cls-15,.cls-4{fill:#fff;}.cls-5{opacity:0.4;}.cls-6{clip-path:url(#clip-path-2);}.cls-7{fill:#d3e1ea;}.cls-8{fill:#afc4d5;}.cls-9{fill:#ff4746;}.cls-10{fill:#febb00;}.cls-11{fill:#edf5f8;}.cls-12{fill:#fcd2c5;}.cls-13,.cls-20{fill:#802b52;}.cls-14{fill:#01d06a;}.cls-15{fill-rule:evenodd;}.cls-16,.cls-21,.cls-22{mix-blend-mode:screen;}.cls-16{fill:url(#Безымянный_градиент_52);}.cls-17{fill:#272063;}.cls-18,.cls-19{fill:#fb0;}.cls-19,.cls-20{mix-blend-mode:multiply;}.cls-20{opacity:0.55;}.cls-21{fill:url(#Безымянный_градиент_104);}.cls-22{fill:url(#Безымянный_градиент_52-2);}</style><clipPath id="clip-path" transform="translate(-54 -44.96)"><rect class="cls-1" width="950" height="650"/></clipPath><clipPath id="clip-path-2" transform="translate(-54 -44.96)"><rect class="cls-1" x="96" y="415.83" width="758" height="97.88"/></clipPath><linearGradient id="Безымянный_градиент_52" x1="411.84" y1="616.49" x2="411.84" y2="398.17" gradientUnits="userSpaceOnUse"><stop offset="0" stop-color="#fff"/><stop offset="0.06" stop-color="#ececec"/><stop offset="0.33" stop-color="#9a9a9a"/><stop offset="0.56" stop-color="#585858"/><stop offset="0.76" stop-color="#282828"/><stop offset="0.91" stop-color="#0b0b0b"/><stop offset="1"/></linearGradient><linearGradient id="Безымянный_градиент_104" x1="421" y1="474.34" x2="421" y2="371.41" gradientUnits="userSpaceOnUse"><stop offset="0" stop-color="#fff"/><stop offset="0.37" stop-color="#fdfdfd"/><stop offset="0.51" stop-color="#f6f6f6"/><stop offset="0.6" stop-color="#ebebeb"/><stop offset="0.68" stop-color="#dadada"/><stop offset="0.75" stop-color="#c4c4c4"/><stop offset="0.8" stop-color="#a8a8a8"/><stop offset="0.86" stop-color="#888"/><stop offset="0.91" stop-color="#626262"/><stop offset="0.95" stop-color="#373737"/><stop offset="0.99" stop-color="#090909"/><stop offset="1"/></linearGradient><linearGradient id="Безымянный_градиент_52-2" x1="334.83" y1="235.24" x2="489.52" y2="235.24" xlink:href="#Безымянный_градиент_52"/></defs><g class="cls-2"><g id="图层_2" data-name="图层 2"><g id="layer_1" data-name="layer 1"><g class="cls-3"><rect class="cls-4" width="842" height="555.33"/><g class="cls-5"><g class="cls-6"><path class="cls-7" d="M150,443.39c8.39,15.3,43.24,139.26,81.52,81.7,60.8-91.43,56.94,116.85,106.7,116.85,47.24,0,56.78-85,108.54-50.83,49.68,32.8,64.36,76.3,105.33,90.52,79,27.43,111.31-127,166.61-114.13C821.33,591.29,788,453.37,843.86,416.37H112C124,417.37,141.65,428.1,150,443.39Z" transform="translate(-54 -44.96)"/><path class="cls-8" d="M636.51,426.9v95.51h51.62V416.12H647.29A10.78,10.78,0,0,0,636.51,426.9Z" transform="translate(-54 -44.96)"/><path class="cls-9" d="M379.38,419.59a4.31,4.31,0,0,0-4-3.47H316.91a1.94,1.94,0,0,0-2.06,2.29l5.42,44.24a4.29,4.29,0,0,0,4,3.47h19.45a1.93,1.93,0,0,0,2.06-2.29l-.53-4.32a1.94,1.94,0,0,1,2.06-2.29h34.37a1.93,1.93,0,0,0,2.05-2.29Z" transform="translate(-54 -44.96)"/><path class="cls-10" d="M375.17,416.12h-58.5a2.89,2.89,0,0,0-2.82,2.29l-9.27,44.24a2.88,2.88,0,0,0,2.82,3.47h19.46a2.88,2.88,0,0,0,2.82-2.29l.9-4.32a2.88,2.88,0,0,1,2.82-2.29h34.36a2.88,2.88,0,0,0,2.82-2.29L378,419.59A2.88,2.88,0,0,0,375.17,416.12Z" transform="translate(-54 -44.96)"/><path class="cls-11" d="M369.6,422.29H352.27a1.24,1.24,0,0,0-1.22,1l-1.48,7.11a1.24,1.24,0,0,0,1.21,1.5h17.33a1.25,1.25,0,0,0,1.21-1l1.49-7.11A1.24,1.24,0,0,0,369.6,422.29Z" transform="translate(-54 -44.96)"/><path class="cls-12" d="M280.27,515.44c-.89.34-.69.85-1.57,1a7.88,7.88,0,0,1,2.41.24c.41.13.83.39.93-.19C282.14,516.17,280.65,515.42,280.27,515.44Z" transform="translate(-54 -44.96)"/><path class="cls-12" d="M286,511.51c0-.55-1.34-.33-1.31-.46.14-.54-.56-.9-2.31,0-.11.05-4.84,1.47-6.32,2.05a19.72,19.72,0,0,0,2,3.52,21.52,21.52,0,0,0,2.68-.81c1.06-.39,3.31-1.51,3.47-1.59a13.82,13.82,0,0,0,1.93-1,2.1,2.1,0,0,0,.39-1.21A.65.65,0,0,0,286,511.51Z" transform="translate(-54 -44.96)"/><path class="cls-12" d="M250.26,528c.16,3,2.35,3.64,3.83,3.42a2.79,2.79,0,0,0,.87-.27c4.25-2.19,18.57-13,23.36-14.61a15.86,15.86,0,0,1-1.68-3.66C268.81,515.67,250.09,524.72,250.26,528Z" transform="translate(-54 -44.96)"/><path class="cls-12" d="M251,526.57c-4.78,5.32-15.37,22.17-12.87,24.94,1.08,1.19,9.3,5.32,9.68,4.62,2.1-3.9,5.36-17.79,8.2-24.14C259.5,524.2,252.82,524.55,251,526.57Z" transform="translate(-54 -44.96)"/><path class="cls-13" d="M250.22,526c-3.89,4.35-16.22,22.47-12.82,26.23,1.13,1.25,8.77,5.26,10.44,5,.38-.06.54.19.71-.12,1.09-2,2.61-7,4-11.79s4.79-13.94,5-14.45c1.74-1.1,18.32-12.38,21.1-13.3L276.3,512C269.41,514.4,253.89,521.73,250.22,526Z" transform="translate(-54 -44.96)"/><path class="cls-14" d="M161.4,453.13c0,11.34,3.25,13.42,3.86,16.1a12,12,0,0,1-.38,5.58,43.71,43.71,0,0,0-1.4,5.13c-.47,3,.12,6.53,1.4,8.41,1.08,1.59,2.68,2.31,3.11,4.83.35,2-.26,4.34.15,6.3a5.56,5.56,0,0,0,1.8,3l.95.92V436.21C168.8,438.75,161.4,442.77,161.4,453.13Z" transform="translate(-54 -44.96)"/><path class="cls-14" d="M180.26,453.13c0-10.36-7.4-14.38-9.49-16.92v67.15l.95-.92a5.49,5.49,0,0,0,1.79-3c.42-2-.19-4.29.16-6.3.42-2.52,2-3.24,3.11-4.83,1.28-1.88,1.87-5.41,1.4-8.41a43.71,43.71,0,0,0-1.4-5.13,12,12,0,0,1-.38-5.58C177,466.55,180.26,464.47,180.26,453.13Z" transform="translate(-54 -44.96)"/><path class="cls-10" d="M171,443.64c1.08,4.16,3.62,4.31,4.31,5.18a2.43,2.43,0,0,1,.26,2.11,11.61,11.61,0,0,0-.52,2.15,3,3,0,0,0,1.82,2.82c.93.38,2.15.34,2.7,1.19.44.67.22,1.64.71,2.28a2.52,2.52,0,0,0,1.57.74l.78.16-6.41-24.61C174.91,437,170,439.85,171,443.64Z" transform="translate(-54 -44.96)"/><path class="cls-10" d="M184.1,448.7a2.45,2.45,0,0,1-.81-2c.18-1.09,2.33-2.47,1.24-6.62-1-3.8-6.69-3.89-8.44-4.43l6.41,24.61.59-.51a2.5,2.5,0,0,0,1-1.42c.12-.8-.54-1.54-.49-2.34.07-1,1.15-1.57,1.78-2.35a3,3,0,0,0,.21-3.35A12.05,12.05,0,0,0,184.1,448.7Z" transform="translate(-54 -44.96)"/><path class="cls-4" d="M188.92,425.88a7.51,7.51,0,0,0-7.13-9.76H169.61a7.5,7.5,0,0,0-7.13,9.76,14.73,14.73,0,0,1,.79,3.77c0,3.32-4.61,8.26-4.61,8.26h34.07s-4.6-4.94-4.6-8.26A14.73,14.73,0,0,1,188.92,425.88Z" transform="translate(-54 -44.96)"/><polygon class="cls-7" points="704.81 572.32 700.27 582.53 715.43 582.53 714.16 572.32 704.81 572.32"/><path class="cls-7" d="M730.79,642.84l-7,12.7,10.64-1.61c2.89,0,5.23-.64,5.23-3.53,0,0,0-4.55,0-4.67Z" transform="translate(-54 -44.96)"/><path class="cls-7" d="M734.43,627l-10.64-1.61,7,12.71,8.86-2.9c0-.12,0-4.67,0-4.67C739.66,627.61,737.32,627,734.43,627Z" transform="translate(-54 -44.96)"/><path class="cls-11" d="M721.76,639.88c4,13.3,64.08,30,72.6,0C794.23,640,721.76,639.88,721.76,639.88Z" transform="translate(-54 -44.96)"/><path class="cls-7" d="M721.76,639.88s72.47-.14,72.6,0C785.84,609.88,725.79,626.59,721.76,639.88Z" transform="translate(-54 -44.96)"/><path class="cls-7" d="M764.89,649.81c26.23,0,29.34-9.78,29.47-9.92H721.77C722,640,738.61,649.81,764.89,649.81Z" transform="translate(-54 -44.96)"/><path class="cls-11" d="M764.89,630c-26.28,0-42.86,9.82-43.12,9.92h72.59C794.23,639.74,791.12,630,764.89,630Z" transform="translate(-54 -44.96)"/><polygon class="cls-7" points="740.36 594.92 740.36 594.92 740.36 594.91 740.36 594.92"/><path class="cls-11" d="M464.89,678.82a9.18,9.18,0,0,0,7-3.45H457.86A9.18,9.18,0,0,0,464.89,678.82Z" transform="translate(-54 -44.96)"/><path class="cls-11" d="M324.89,678.14c2.43,0,4.08,4.08,6.24,4.75,7.51,2.34,8.22,5.59,16.38,5.59,4.32,0,7.23-4.78,11.21-4.34,6.75.75,10.34,9.24,17.65,9.24,7.91,0,11.22-9.9,18.57-10.57,4.63-.43,7.54,5.83,12.57,5.83,6.51,0,8.94-7.61,14.87-9,2.72-.64,5,3,8,3a14,14,0,0,0,12.24-7.27H317.86C319.49,677.37,322,678.14,324.89,678.14Z" transform="translate(-54 -44.96)"/><path class="cls-11" d="M276.89,626.82a9.18,9.18,0,0,0,7-3.45H269.86A9.18,9.18,0,0,0,276.89,626.82Z" transform="translate(-54 -44.96)"/><path class="cls-11" d="M136.89,626.14c2.43,0,.3,3.9,6.24,4.75,10.13,1.46,8.22,5.59,16.38,5.59,4.32,0,7.23-4.78,11.21-4.34,6.75.75,10.34,9.24,17.65,9.24,7.91,0,11.22-9.9,18.57-10.57,4.63-.43,7.54,5.83,12.57,5.83,6.51,0,8.94-7.61,14.87-9,2.72-.64,5,3,8,3a14,14,0,0,0,12.24-7.27H129.86C131.49,625.37,134,626.14,136.89,626.14Z" transform="translate(-54 -44.96)"/><rect class="cls-11" x="430.28" y="382.39" width="89.93" height="31.55"/><path class="cls-4" d="M345.06,406.34H605.42a14.8,14.8,0,0,1,14.8,14.8V578.61a14.81,14.81,0,0,1-14.81,14.81H345.06a14.81,14.81,0,0,1-14.81-14.81V421.14A14.81,14.81,0,0,1,345.06,406.34Z"/><rect class="cls-8" x="340.08" y="432.78" width="270.32" height="152"/><path class="cls-15" d="M602.22,416.12h-146a5.73,5.73,0,1,0,0,11.45H602.22a5.73,5.73,0,0,0,0-11.45Z" transform="translate(-54 -44.96)"/><rect class="cls-11" x="367.02" y="446.63" width="216.44" height="140.25"/><rect class="cls-9" x="367.02" y="582.31" width="216.44" height="16.47"/><rect class="cls-4" x="381" y="462.41" width="187" height="112"/><rect class="cls-11" x="465.17" y="558.59" width="14.61" height="3.49"/><rect class="cls-11" x="481.76" y="558.59" width="18.21" height="3.49"/><rect class="cls-11" x="503.71" y="558.59" width="6.65" height="3.49"/><rect class="cls-11" x="465.17" y="553.06" width="5.26" height="3.49"/><rect class="cls-11" x="473.13" y="553.06" width="15.3" height="3.49"/><rect class="cls-11" x="387.73" y="528.41" width="31.04" height="3.16"/><rect class="cls-11" x="387.73" y="537.97" width="31.04" height="28.47"/><rect class="cls-11" x="387.73" y="519.53" width="31.04" height="3.16"/><rect class="cls-11" x="387.73" y="510.65" width="31.04" height="3.16"/><rect class="cls-11" x="387.73" y="501.77" width="31.04" height="3.16"/><rect class="cls-11" x="387.73" y="492.89" width="31.04" height="3.16"/><rect class="cls-11" x="387.73" y="484.01" width="31.04" height="3.16"/><path class="cls-4" d="M629.25,630.5a1.76,1.76,0,1,0,1.76,1.76A1.76,1.76,0,0,0,629.25,630.5Z" transform="translate(-54 -44.96)"/><circle class="cls-4" cx="568.21" cy="587.29" r="1.76"/><rect class="cls-4" x="392.68" y="559.41" width="21.13" height="3.56"/><rect class="cls-4" x="392.68" y="553.49" width="21.13" height="3.56"/><rect class="cls-4" x="392.68" y="547.57" width="21.13" height="3.56"/><rect class="cls-4" x="392.68" y="541.64" width="21.13" height="3.56"/><path class="cls-7" d="M500,593.67a8.87,8.87,0,1,0,8.86,8.86A8.86,8.86,0,0,0,500,593.67Z" transform="translate(-54 -44.96)"/><path class="cls-7" d="M608.76,600.14a2.4,2.4,0,1,0,2.4,2.39A2.39,2.39,0,0,0,608.76,600.14Z" transform="translate(-54 -44.96)"/><path class="cls-7" d="M608.76,597.93a4.61,4.61,0,1,0,4.6,4.6A4.6,4.6,0,0,0,608.76,597.93Zm0,8.39a3.79,3.79,0,1,1,3.78-3.79A3.79,3.79,0,0,1,608.76,606.32Z" transform="translate(-54 -44.96)"/><rect class="cls-7" x="438" y="470.41" width="123" height="74"/><polygon class="cls-16" points="340.62 565.1 483.05 616.49 483.05 398.17 340.62 449.56 340.62 565.1"/><path class="cls-17" d="M272.55,433.12a7.14,7.14,0,0,0-7.16,7.14V525l14.26,0,0-84.77A7.15,7.15,0,0,0,272.55,433.12Z" transform="translate(-54 -44.96)"/><path class="cls-9" d="M249,533.54v33.79a8.1,8.1,0,0,0,8.1,8.1l38.94,0,.06-50h-39A8.09,8.09,0,0,0,249,533.54Z" transform="translate(-54 -44.96)"/><polygon class="cls-11" points="205.05 531.78 215.73 531.8 215.75 479.17 205.05 479.15 205.05 531.78"/><polygon class="cls-11" points="175.65 518.03 194.96 524.67 194.98 486.3 175.65 492.92 175.65 518.03"/><polygon class="cls-8" points="242.04 530.48 331.49 561.59 331.49 449.56 242.08 480.49 242.04 530.48"/><path class="cls-17" d="M395.17,540.13l0,20.8a11.53,11.53,0,0,0,0-20.8Z" transform="translate(-54 -44.96)"/><path class="cls-9" d="M390.33,486.28a4.84,4.84,0,0,0-4.84,4.84V610a4.84,4.84,0,1,0,9.67,0V491.12A4.84,4.84,0,0,0,390.33,486.28Z" transform="translate(-54 -44.96)"/><path class="cls-12" d="M753.24,562.59c-.1.37.34,2,.72,2,.59,0,.42-.45.38-.88a8.13,8.13,0,0,1,.24-2.41C754.22,562.09,753.75,561.79,753.24,562.59Z" transform="translate(-54 -44.96)"/><path class="cls-12" d="M752,557.93c-.76,1-2.76,4.5-2.83,4.57-1.13,1.18-.88,1.82-.33,1.84.13,0-.26,1,.27,1.15a.61.61,0,0,0,.4.53,2.3,2.3,0,0,0,1.23,0,9.21,9.21,0,0,0,1.26-1.3c.1-.11,1.49-1.65,2-2.4a14,14,0,0,0,1.14-2A22.86,22.86,0,0,0,752,557.93Z" transform="translate(-54 -44.96)"/><path class="cls-12" d="M774.29,536.86c-2-1.85-8.67-1.61-4.51,5.84,3.39,6.07,7.87,19.62,10.3,23.31.44.67,8.27-4.17,9.24-5.45C791.56,557.58,779.52,541.73,774.29,536.86Z" transform="translate(-54 -44.96)"/><path class="cls-10" d="M778.51,545.7a52.81,52.81,0,0,0-6.43,4.23c3.26,6,6.29,13.48,8,16.08.44.67,8.27-4.17,9.24-5.45,1.5-2-1.79-10.74-6.74-17.11C781.74,543.83,779.32,545.25,778.51,545.7Z" transform="translate(-54 -44.96)"/><path class="cls-12" d="M771.57,535.7c-3.21-.83-15.81,15.71-20.07,22.83a15.91,15.91,0,0,1,3.25,2.38c2.5-4.38,16-16.25,19-20a3,3,0,0,0,.43-.8C774.68,538.73,774.51,536.46,771.57,535.7Z" transform="translate(-54 -44.96)"/><path class="cls-12" d="M802.14,421.73s-3.26,58.34-3.36,59.5c1-1,10.62.71,12.15,1.89.2-2.68-5-62.21-5-62.21A4.78,4.78,0,0,0,802.14,421.73Z" transform="translate(-54 -44.96)"/><path class="cls-17" d="M805.64,418.34c-.33-.55-2.27-1.09-3.3-1.69a7.21,7.21,0,0,0-3.69-.51c-1.53.06-3.41.86-3.41,1.76,0,1.77,5,2.67,6.09,3.92.55.64,1.22,1.64,1.22,1.64l3.12-1.73s.25-.34.09-1.33A2.53,2.53,0,0,0,805.64,418.34Z" transform="translate(-54 -44.96)"/><path class="cls-12" d="M803.15,420.08a5.28,5.28,0,0,0-1.82,1.74,7.51,7.51,0,0,1,1.12,1.83l3.54-1.59s-.07-.67-.23-1.66C805.76,420.4,803.81,419.71,803.15,420.08Z" transform="translate(-54 -44.96)"/><path class="cls-13" d="M806.29,422.74c-1.53-1.68-4.56,0-4.6.13,0,0-8.51,98.55-8,102.55,2.49-1.09,13.4-2.21,20.91-1.71,0,0-1.07-38.32-3.71-56.82C807.88,445.46,806.29,422.74,806.29,422.74Z" transform="translate(-54 -44.96)"/><path class="cls-12" d="M785.84,421.73s-3.25,58.34-3.36,59.5c1-1,10.63.71,12.16,1.89.2-2.68-5.06-62.21-5.06-62.21A4.78,4.78,0,0,0,785.84,421.73Z" transform="translate(-54 -44.96)"/><path class="cls-17" d="M789.34,418.34c-.32-.55-2.39-1.4-3.29-1.69a10.41,10.41,0,0,0-3.7-.51c-1.53.06-3.41.86-3.41,1.76,0,1.77,5,2.67,6.1,3.92a20,20,0,0,1,1.21,1.64l3.12-1.73s.26-.34.09-1.33A2.49,2.49,0,0,0,789.34,418.34Z" transform="translate(-54 -44.96)"/><path class="cls-12" d="M786.85,420.08a5.2,5.2,0,0,0-1.81,1.74,7.64,7.64,0,0,1,1.11,1.83l3.55-1.59s-.07-.67-.24-1.66C789.46,420.4,787.52,419.71,786.85,420.08Z" transform="translate(-54 -44.96)"/><path class="cls-13" d="M790,422.74c-1.52-1.68-4.56,0-4.6.13,0,0-8.5,98.55-7.94,102.55,2.49-1.09,13.39-2.21,20.91-1.71V504.1c-1.47-1.16-1.07-18.71-3.72-37.21C791.59,445.46,790,422.74,790,422.74Z" transform="translate(-54 -44.96)"/><path class="cls-10" d="M795.39,515.3c-7.41-.91-17.16-3-19.76-.74-1.15,1,1.24,12.47,1.24,12.47L816,529.35s1.82-9,.85-13.13C816.48,514.71,802.81,516.21,795.39,515.3Z" transform="translate(-54 -44.96)"/><path class="cls-12" d="M788.72,570c1,2.44,0,7-.05,7.41,1.55-.24,7,2.77,7.49,3.15-.31-2.09.29-7.9,1-9C795.44,567.68,789.15,567.69,788.72,570Z" transform="translate(-54 -44.96)"/><path class="cls-12" d="M795,579c-.16-2.29-3.93-5.64-5.89-5.08-4.64,1.32-5,10-4.82,11,.63,2.69,3.38,3.35,6.23,3.16,3.06-.21,4.9-2.87,4.7-5.9C795.16,582.12,795,579,795,579Z" transform="translate(-54 -44.96)"/><path class="cls-17" d="M775.32,520.62c-1,1.74.43,6.35,2.7,37.86.23,3.16.29,7,4.18,9.23,1,.58,6.52,2.25,6.52,2.25s1.3-1.65,2.84-1.54c2.23.17,5.61,3.1,5.61,3.1s4.77-1.31,6.38-1.7c4.82-1.16,6.83-3.69,8.57-8.48.53-1.48,2.53-19.31,5-36.89C817.88,519.17,777.74,516.35,775.32,520.62Z" transform="translate(-54 -44.96)"/><path class="cls-9" d="M795.72,577.2c.45,2-1.87,10-8.51,9.88,0,0-3.59-1.7-2.52-7-2.26,1-3.32,8.22,1.59,9.15,0,0,6.44,4,10.6.22C803.14,583.8,795.72,577.2,795.72,577.2Z" transform="translate(-54 -44.96)"/><path class="cls-12" d="M795.11,579.41a37.39,37.39,0,0,0-1.33,3.5,2.58,2.58,0,0,0,1.27.44c.79,0,1.59-1,1.62-1.79A2.74,2.74,0,0,0,795.11,579.41Z" transform="translate(-54 -44.96)"/><path class="cls-9" d="M815.35,562.77c-1.06,2.14,4.71,5.79-4.31,8.51-10,3-7.18,8-7.12,11.21.26,12.3-5.15,8.71-6.2,6.1-.62-1.54-1.48-1-1.9.16-1.74,4.78,11.15,16.88,17.75-1.32,2-5.49,3.46-5.61,5.57-6.91C829.54,574.1,818.07,557.29,815.35,562.77Z" transform="translate(-54 -44.96)"/><path class="cls-17" d="M794.34,590.83a2.48,2.48,0,0,0,1.46.72,1.89,1.89,0,0,0,1.13-.3c1.52-.92,1.55-2,1.11-3A10,10,0,0,1,794.34,590.83Z" transform="translate(-54 -44.96)"/><path class="cls-12" d="M478.39,523.33c-.94.18-.83.72-1.73.76a8.72,8.72,0,0,1,2.33.66c.69.28,1.19.9,1.39.35C480.54,524.75,478.76,523.38,478.39,523.33Z" transform="translate(-54 -44.96)"/><path class="cls-12" d="M479.71,520a10.11,10.11,0,0,1-2.92.17,19.67,19.67,0,0,0,.21,4c2.62-1.22,3.66.73,4.35.07S481.68,520,479.71,520Z" transform="translate(-54 -44.96)"/><path class="cls-12" d="M450.91,532.77c-5,5.16-16.06,21.68-13.65,24.52,1,1.23,9.13,5.62,9.53,4.92,2.21-3.83,5.92-17.61,9-23.87C459.47,530.67,452.78,530.81,450.91,532.77Z" transform="translate(-54 -44.96)"/><path class="cls-12" d="M450.11,534.21c.06,3,2.23,3.72,3.72,3.54a3,3,0,0,0,.88-.23c4.32-2.06,19-12.44,23.81-13.87a16.26,16.26,0,0,1-1.73-3.47C474.15,519.78,450,530.9,450.11,534.21Z" transform="translate(-54 -44.96)"/><path class="cls-17" d="M449.14,532.68c-3.85,4.17-17.78,22.82-14.53,26.54,1.08,1.24,12.94,5.17,13.11,4.86,1.1-2,8.31-26,8.48-26.53,1.71-1,4-2.52,6.36-4.09,5.21-3.42,11.69-7.67,14.41-8.52l-2.18-5.45C468,521.74,452.79,528.62,449.14,532.68Z" transform="translate(-54 -44.96)"/><path class="cls-12" d="M422.9,421.34s-1.46,59.74-1.1,62.41c1.46-1.28,11-3.54,12-2.66-.17-1.15-7.12-59.17-7.12-59.17A4.78,4.78,0,0,0,422.9,421.34Z" transform="translate(-54 -44.96)"/><path class="cls-10" d="M429.82,416.13a10.23,10.23,0,0,0-3.66.74c-.88.35-2.89,1.32-3.18,1.89a2.54,2.54,0,0,0,0,2.07c-.1,1,.18,1.32.18,1.32l3.22,1.53s.6-1,1.11-1.72c1-1.31,5.95-2.53,5.83-4.3C433.28,416.77,431.35,416.09,429.82,416.13Z" transform="translate(-54 -44.96)"/><path class="cls-10" d="M438.07,418.27c-1.11-1.06-3-1.84-3.64-1.22-1.27,1.23,1.6,5.48,1.44,7.1-.08.84-.34,2-.34,2l3.42,1s.42-.06,1-.86a2.52,2.52,0,0,0,1.39-1.53c.17-.61-.8-2.38-1.08-3.53A7.36,7.36,0,0,0,438.07,418.27Z" transform="translate(-54 -44.96)"/><path class="cls-12" d="M438.38,424.24a5.28,5.28,0,0,0-2.51-.09,7.72,7.72,0,0,1-.54,2.08l3.61,1.43s.43-.52,1-1.32C440,426.34,439.11,424.46,438.38,424.24Z" transform="translate(-54 -44.96)"/><path class="cls-9" d="M435.63,425.35s-23.46,27.86-24.94,40.36c-3.1,26.11-5.72,53.12-5.53,55.23,2.54-1,12.33-1.41,19.81-.55,2.16-13.11.15-36-.71-54.05-.39-8,15.49-39.71,15.49-39.71A4.22,4.22,0,0,0,435.63,425.35Z" transform="translate(-54 -44.96)"/><path class="cls-12" d="M425.58,420.34c-.69-.33-2.59.49-2.59.49-.1,1-.12,1.66-.12,1.66l3.63,1.37a7.71,7.71,0,0,1,1-1.9A5.18,5.18,0,0,0,425.58,420.34Z" transform="translate(-54 -44.96)"/><path class="cls-9" d="M422.61,423.19s-.15,22.78-1.84,44.36c-1.46,18.64.9,56.94.9,56.94,7.46-1,18.42-.55,21,.38.31-4-15.43-101.83-15.43-101.83C427.16,422.87,424,421.42,422.61,423.19Z" transform="translate(-54 -44.96)"/><path class="cls-13" d="M427,510c-1.2.16-3.68,7.38-3.68,7.38l-3-6.58a45.32,45.32,0,0,0-15,4.45c-1.42,5.86,2.24,14.67,2.24,14.67l36.69-7.82,1.51-10.59C440.75,509.16,433.77,509.13,427,510Z" transform="translate(-54 -44.96)"/><path class="cls-12" d="M439.41,569.63c-.74-2.19-7-1.34-8.16,2.7.87,1,2.26,6.67,2.25,8.78.46-.45,5.41-4.17,7-4.16C440.41,576.53,438.75,572.18,439.41,569.63Z" transform="translate(-54 -44.96)"/><path class="cls-17" d="M444,519.51c-4.44-1.4-28.35-.18-36.85,6.76a2.47,2.47,0,0,0-.84,2.41c1.08,5.48,5.23,25.79,9,34.49,1.67,3.86,4.48,7.88,9.41,8.36,1.65.16,6.55.8,6.55.8s2.95-3.37,5.14-3.83c1.5-.33,3,1.13,3,1.13s5.23-2.42,6.15-3.13a8.61,8.61,0,0,0,2.87-9.72C445.13,546.24,447.39,520.59,444,519.51Z" transform="translate(-54 -44.96)"/><path class="cls-12" d="M370.25,581.88c-1.08,1.16-4.14,5-4.23,5.12-1.5,1.29-1.43,2.07-.87,2.14.13,0-.57,1.21-.06,1.39a.65.65,0,0,0,.26.67,2.07,2.07,0,0,0,1.27.08,14.28,14.28,0,0,0,1.68-1.41c.13-.11,2-1.8,2.75-2.64a18.65,18.65,0,0,0,1.74-2.2A20.63,20.63,0,0,0,370.25,581.88Z" transform="translate(-54 -44.96)"/><path class="cls-12" d="M391.94,563.54c-2.54.94-5.32,7,3.2,6.65,6.95-.31,21.07,1.75,25.47,1.24.79-.1,0-9.26-.74-10.71C418.21,557.38,398.65,561,391.94,563.54Z" transform="translate(-54 -44.96)"/><path class="cls-12" d="M393.58,563.38c-3-1.38-18.31,12.71-23.74,19a15.54,15.54,0,0,1,2.78,2.92c3.23-3.88,18.57-13.22,22.17-16.37a2.81,2.81,0,0,0,.57-.71C396.12,566.9,396.35,564.64,393.58,563.38Z" transform="translate(-54 -44.96)"/><path class="cls-17" d="M392.57,561.88c-5.18,1.74-17.55,13-22.29,18.32l4.15,4.16c1.85-2.16,8.33-6.43,13.53-9.85,2.38-1.57,4.64-3.06,6.28-4.22.52,0,19.07,2.89,33.33,1.57,1.63-.15-6.55-9.93-7.26-11.43C418.19,556,397.92,560,392.57,561.88Z" transform="translate(-54 -44.96)"/><path class="cls-10" d="M445.83,555.16c-1.55-9.44-7.54-13.57-9.11-12.52-1.73,1.16,3.59,10,2.15,18.73-1,6.11.6,7.83,1.28,10.33a17,17,0,0,1-.09,8c.05.07,4.22,3.84,5.39,1.65a15.78,15.78,0,0,0-.34-8.78,14,14,0,0,1,.11-9.69A15.56,15.56,0,0,0,445.83,555.16Z" transform="translate(-54 -44.96)"/><path class="cls-12" d="M439.61,573.59c-2-.28-5.29,3.56-5.13,5.85,0,0,.22,3.11.22,3.14.21,3,2.93,5.84,6,5.63,2.85-.2,5-1.66,5.23-4.41C446,582.82,444.39,574.26,439.61,573.59Z" transform="translate(-54 -44.96)"/><path class="cls-10" d="M444.56,578.46c2.55,7.82-2.33,9.6-2.33,9.6s-3.54,0-5.46-1.85c-1.75-1.67-3.82-6.46-3.26-10.33.42-3,2.45-5.26-.6-11.83-4.39-9.43,1.6-20.55-1.34-21.41-2.68-.79-10.86,5.3-10.89,16.22,0,1.87.52,5.76,2.85,8.41A12.17,12.17,0,0,1,426.09,578a13.93,13.93,0,0,0,4.38,13.23c3.26,3,7.38,3.5,9.47,2.36,2.61-1.43,2.48-2.77,2.48-2.77a4.59,4.59,0,0,0,2.87-.81C448.39,587.92,447.39,580.5,444.56,578.46Z" transform="translate(-54 -44.96)"/><path class="cls-12" d="M433.13,582.21c.14.78,1.07,1.69,1.85,1.55a2.68,2.68,0,0,0,1.2-.61,36.37,36.37,0,0,0-1.8-3.28A2.74,2.74,0,0,0,433.13,582.21Z" transform="translate(-54 -44.96)"/><path class="cls-12" d="M642.44,422.49s-9.12,57.05-9.1,59.74c1.61-1.08,11.36-2.07,12.25-1.06,0-1.17.53-57.6.53-57.6A4.81,4.81,0,0,0,642.44,422.49Z" transform="translate(-54 -44.96)"/><path class="cls-17" d="M641.91,424.3s-3,20.56-7.48,41.74c-3.89,18.28-4.68,35.82-6.22,36.87l-.23,3.53c5.21.67,10.35,1.76,15.53,2.84,1.51.32,2.94.62,4.31,1-.16-28.29-1.33-85.5-1.33-85.5A3.79,3.79,0,0,1,641.91,424.3Z" transform="translate(-54 -44.96)"/><path class="cls-18" d="M650.11,416.23a7.3,7.3,0,0,0-3.72.26,16.93,16.93,0,0,0-3.54,3.46c-.63.91-.54,3.39-.54,3.39,1,2.07,3.8,1.29,3.8,1.29a8,8,0,0,1,.8-.92c1.14-1.17,6.37-3.73,6.48-5.5C653.46,417.32,651.63,416.4,650.11,416.23Z" transform="translate(-54 -44.96)"/><path class="cls-19" d="M649.83,416.21a6.1,6.1,0,0,0-3.13.22,13.79,13.79,0,0,0-3,2.91c-1.64,2.45,1,4.15,2.42,3.06s6.36-3,6.46-4.52C652.65,417.13,651.11,416.35,649.83,416.21Z" transform="translate(-54 -44.96)"/><path class="cls-12" d="M586.83,612c.09.89-.47.87-.51,1.81.09.37,1.27,1.56,1.59,1.35.52-.28.14-.59-.11-1A7.91,7.91,0,0,1,586.83,612Z" transform="translate(-54 -44.96)"/><path class="cls-12" d="M582.81,610.46c-.09,1.58,0,6.53,0,6.64-.33,1.95.22,2.51.7,2.21.11-.08.32,1.29.84,1.1a.65.65,0,0,0,.62.36,2.17,2.17,0,0,0,1-.75,13.88,13.88,0,0,0,.4-2.16c0-.17.39-2.67.43-3.79a18.53,18.53,0,0,0-.06-2.8A20.14,20.14,0,0,0,582.81,610.46Z" transform="translate(-54 -44.96)"/><path class="cls-12" d="M589,581.33c-3.21.86-6,21.46-6.2,29.76a15.75,15.75,0,0,1,4,.47c0-5,5.88-22,6.64-26.74a3.1,3.1,0,0,0,0-.91C593.18,582.43,591.92,580.54,589,581.33Z" transform="translate(-54 -44.96)"/><path class="cls-12" d="M607.54,562.53c-3.4-1.52-16.14,13.77-19.72,20-1.35,2.36.38,8.81,6.71,3.09,5.16-4.67,17.35-12.08,20.41-15.28C615.49,569.72,609,563.18,607.54,562.53Z" transform="translate(-54 -44.96)"/><path class="cls-10" d="M607.17,556c-3.38,4.36-17.25,20.93-20.17,26-2.88,4.82-5,21.85-5.21,29.15l6,.49c0-2.92,2.23-10.56,4-16.7.81-2.82,1.59-5.48,2.09-7.48a13.45,13.45,0,0,0,1.3-1.06,127.69,127.69,0,0,1,10.9-8.12c4.1-2.85,6.65-5.58,9.58-5.37C616,572.86,608.21,554.61,607.17,556Z" transform="translate(-54 -44.96)"/><path class="cls-12" d="M685.05,540.87c-.95,0-.95.55-1.84.42a8.15,8.15,0,0,1,2.17,1.08c.34.27.64.66.94.15C686.54,542.21,685.41,541,685.05,540.87Z" transform="translate(-54 -44.96)"/><path class="cls-12" d="M691.78,539.22c.21-.51-1.14-.79-1.06-.9.32-.46-.21-1-2.17-.79-.12,0-5-.34-6.63-.32a19.88,19.88,0,0,0,.62,4,19.39,19.39,0,0,0,2.79.2c1.12,0,3.63-.24,3.81-.26a14.64,14.64,0,0,0,2.17-.29,2.14,2.14,0,0,0,.8-1A.64.64,0,0,0,691.78,539.22Z" transform="translate(-54 -44.96)"/><path class="cls-12" d="M682.55,537.22c-8.3-.2-29,1.62-30,4.78-.92,2.89.9,4.24,2.37,4.55a3,3,0,0,0,.91.07c4.75-.55,22-5.6,27-5.38A15.37,15.37,0,0,1,682.55,537.22Z" transform="translate(-54 -44.96)"/><path class="cls-12" d="M653.74,540.89c-6.35,3.28-22.23,15.28-20.88,18.75.59,1.51,6.81,8.28,7.42,7.76,3.34-2.9,11.32-14.73,16.23-19.66C662.53,541.69,656.16,539.65,653.74,540.89Z" transform="translate(-54 -44.96)"/><path class="cls-10" d="M653.21,540c-5.16,2.68-17.17,10.76-21.7,13.93-1.38,1,8.73,16.86,8.92,16.55,3.26-5,5.12-7.62,8.16-11.57a125.51,125.51,0,0,1,8.63-10.51c.41-.42.78-.83,1.12-1.25,2-.41,4.71-1.05,7.56-1.73,6.22-1.49,14-3.35,16.88-3.22l-.21-6C675.27,536,658.16,537.39,653.21,540Z" transform="translate(-54 -44.96)"/><path class="cls-12" d="M614.55,425s-1.22,56.42-1.28,57.58c.93-1,10.64.32,12.22,1.45.1-2.69-7.24-60-7.24-60A4.72,4.72,0,0,0,614.55,425Z" transform="translate(-54 -44.96)"/><path class="cls-17" d="M624.91,467.77c-3.84-21.31-6.18-41.95-6.18-41.95a3.8,3.8,0,0,1-4.59.3s-5,96.79-4.3,100.77c2.45-1.19,13.31-2.69,20.84-2.47l-.72-19.6C628.46,503.72,628.22,486.17,624.91,467.77Z" transform="translate(-54 -44.96)"/><path class="cls-4" d="M645.32,503.55c-6.27-2-22.44-1-37.24,1.41-.78,5.5-.27,9.34-.46,15.62,1.66-.06,3.37,0,5.1,0a217,217,0,0,1,22.52,1.15,45.83,45.83,0,0,1,12.89,3.46,118.75,118.75,0,0,0,1.46-19.59C649.45,505.23,646.45,503.92,645.32,503.55Z" transform="translate(-54 -44.96)"/><path class="cls-12" d="M619.35,574.42c1,2.44-.23,6-.24,6.45,1.54-.24,7,2.76,7.49,3.15-.31-2.09.62-8.83,1.34-9.93C626.2,570.25,619.78,572.15,619.35,574.42Z" transform="translate(-54 -44.96)"/><path class="cls-12" d="M625.39,582.49c-.16-2.28-3.93-5.63-5.89-5.08-4.64,1.33-5,10-4.82,11,.63,2.69,3.39,3.35,6.24,3.16,3.05-.21,4.9-2.88,4.69-5.91C625.61,585.61,625.39,582.49,625.39,582.49Z" transform="translate(-54 -44.96)"/><path class="cls-10" d="M647.27,508.32l-2,11.78L645,507.48c-6.4-1.58-20.73-.92-30.22-.87l-3,13.9-.67-13.93c-.91,0-2.78,0-3.49-.1-3.05,21.46.45,54.43.36,55.45-.4,4.18.63,8.06,5.24,9.9,1.53.61,6.06,2.59,6.06,2.59s1.12-1.16,4.08-1.34a5.88,5.88,0,0,1,4.3,1.46s2.66-.13,8-.8c4.25-.53,7-6.2,7.46-8.79s7-35.5,6.47-55.24C649.47,509.33,647.75,508.6,647.27,508.32Z" transform="translate(-54 -44.96)"/><path class="cls-18" d="M614.5,417.88a7.21,7.21,0,0,0-3.72-.38c-1.53.12-3.37,1-3.34,1.88.06,1.77,5.21,4.49,6.31,5.69a9.54,9.54,0,0,1,.77.95s2.82.87,3.84-1.17c0,0,.17-2.47-.44-3.41A16.79,16.79,0,0,0,614.5,417.88Z" transform="translate(-54 -44.96)"/><path class="cls-19" d="M614.19,417.8a6.17,6.17,0,0,0-3.13-.31c-1.28.1-2.84.83-2.81,1.58,0,1.49,4.85,3.55,6.31,4.72s4.08-.48,2.51-3A13.78,13.78,0,0,0,614.19,417.8Z" transform="translate(-54 -44.96)"/><path class="cls-13" d="M629,581.11a11.07,11.07,0,0,0-4-2.79c-7.23-2.35-11.87,7.36-11.87,7.36s3,.9,2,.84c-4.38-.32-5.33,1.65-4.88,3.91-.14-.9,1.22-3.27,2.7.13,2,4.56,9.51,7.92,13.95,4.41,3.93-3.1,3.39-8.64,1-12.34C626.63,580.73,629,581.11,629,581.11Z" transform="translate(-54 -44.96)"/><path class="cls-17" d="M227.41,415.88a10.39,10.39,0,0,0-3.69.51c-.91.29-3,1.13-3.3,1.69a2.53,2.53,0,0,0-.12,2.06c-.16,1,.09,1.33.09,1.33l3.12,1.73s.67-1,1.22-1.65c1.05-1.24,6.09-2.14,6.09-3.91C230.82,416.74,228.94,415.94,227.41,415.88Z" transform="translate(-54 -44.96)"/><path class="cls-12" d="M222.91,419.82c-.66-.37-2.61.32-2.61.32a13.82,13.82,0,0,0-.08,2.41l4.19.75a1.52,1.52,0,0,1,.32-1.75A5.3,5.3,0,0,0,222.91,419.82Z" transform="translate(-54 -44.96)"/><path class="cls-14" d="M224.37,422.61c0-.16-3.07-1.81-4.6-.13,0,4,5.47,41.73,5.35,42.15-3.69,12.83-12.25,35.05-13.71,36.21v19.61c7.51-.5,18.42.62,20.91,1.71.3-2.15,8-30.61,5.77-57.4C236.19,441.7,224.37,422.61,224.37,422.61Z" transform="translate(-54 -44.96)"/><path class="cls-17" d="M203.34,415.13a7.36,7.36,0,0,0-3.64.79c-1,.68-2.87,1.37-3.16,1.94a2.55,2.55,0,0,0,.05,2.07c-.09,1,.19,1.32.19,1.32l3.25,1.48s.59-1.05,1.08-1.74c.95-1.32,5.91-2.62,5.77-4.38C206.81,415.72,204.87,415.07,203.34,415.13Z" transform="translate(-54 -44.96)"/><path class="cls-12" d="M199.17,419.4c-.7-.31-2.58.53-2.58.53-.09,1,0,2.49,0,2.49l4.14.45a2.24,2.24,0,0,1,.42-1.88A5.32,5.32,0,0,0,199.17,419.4Z" transform="translate(-54 -44.96)"/><path class="cls-14" d="M200.84,422.08c-.05-.17-3.21-1.57-4.6.22,0,19,8.81,42.07,8.81,42.07-1.6,16.75-14,42.74-4.62,60.5,6.5,2.75,15.83-.9,18.37-4.19.13-2.17,2.42-30.67-.84-57.42C216.26,449.29,200.84,429.79,200.84,422.08Z" transform="translate(-54 -44.96)"/><path class="cls-12" d="M243.39,562.39c-1.08-2-7.09-.2-7.61,4,1,.83,3.3,6.22,3.62,8.3.39-.52,4.68-5,6.23-5.22C245.49,569,243.15,565,243.39,562.39Z" transform="translate(-54 -44.96)"/><path class="cls-12" d="M244.23,566.27c-2,0-4.65,4.36-4.12,6.59,0,0,.71,3,.72,3.07.69,3,3.24,5,6.22,4.26,2.78-.66,5.22-2.1,5-4.86C252,574.35,249.05,566.16,244.23,566.27Z" transform="translate(-54 -44.96)"/><path class="cls-13" d="M242.57,531.2c-.51-1.75-1-3.61-1.52-5.61a136,136,0,0,1-3.28-18.21c-3.85-9.57-23.25-9.69-35.17-.33l2.29,13.76-5.59-12.22c-.82.37-2.65.85-3.33,1.12,7.06,40.62,18.49,55.65,33.22,56.92a65.06,65.06,0,0,0,6.58-.26s2.38-3.8,4.46-4.62c1.43-.55,3.16.64,3.16.64s4.78-3.23,5.57-4.08c3-3.3.33-7.78-1-11.88C247.54,545.07,245.06,539.67,242.57,531.2Z" transform="translate(-54 -44.96)"/><path class="cls-17" d="M240.93,551.17s-6.67,10.73-11.75,15.46a14,14,0,0,0,3.28.07l3.32-.33s2.36-3.8,4.45-4.61c1.43-.56,3.16.63,3.16.63a45.34,45.34,0,0,0,4.42-3.12C246.16,555.05,240.93,551.17,240.93,551.17Z" transform="translate(-54 -44.96)"/><path class="cls-17" d="M242.39,578.46c-2-1.74-3.7-6.28-3.7-6.28-2.85,4.1-1.77,11.42,3.37,14.19,6.72,3.63,15.38-3.39,14.17-9.33C256,575.73,254,572.88,242.39,578.46Z" transform="translate(-54 -44.96)"/><path class="cls-12" d="M239,575.54c.07.79.92,1.77,1.71,1.7a2.49,2.49,0,0,0,1.24-.5,33.62,33.62,0,0,0-1.5-3.42A2.73,2.73,0,0,0,239,575.54Z" transform="translate(-54 -44.96)"/><path class="cls-20" d="M234.63,527.64c-1,.86-11.39,14-14.49,20.51-2.28,4.8,7.78,6.55,8,3.3.46-6.07,8.27-14.5,14.39-20.25-.51-1.75-1-3.61-1.52-5.61C238.28,526,235.68,526.68,234.63,527.64Z" transform="translate(-54 -44.96)"/><path class="cls-12" d="M268.88,524.59c-.93.19-.81.74-1.71.79a8.09,8.09,0,0,1,2.34.61c.39.19.76.51.95,0C270.62,525.6,269.26,524.62,268.88,524.59Z" transform="translate(-54 -44.96)"/><path class="cls-12" d="M275.12,521.58c.1-.54-1.27-.53-1.22-.65.22-.52-.42-1-2.29-.33-.11,0-5,.71-6.56,1.06a20.3,20.3,0,0,0,1.44,3.78,21.2,21.2,0,0,0,2.77-.39c1.1-.22,3.51-1,3.68-1a14.47,14.47,0,0,0,2.06-.73,2.22,2.22,0,0,0,.58-1.14A.66.66,0,0,0,275.12,521.58Z" transform="translate(-54 -44.96)"/><path class="cls-13" d="M237.56,530.37c-4.5,3.69-19.47,19.7-16.69,23.93.93,1.42,7.86,6.55,9.55,6.56a1.19,1.19,0,0,0,.94-.45c1.39-1.84,3.43-6.09,5.59-10.59a127.08,127.08,0,0,1,6.26-12.06,15.93,15.93,0,0,0,.84-1.46c1.89-.81,4.4-2,7-3.26,5.78-2.74,13-6.16,15.85-6.64l-1.45-5.85C258.31,521.89,241.85,526.75,237.56,530.37Z" transform="translate(-54 -44.96)"/><rect class="cls-8" x="406.79" y="462.16" width="74.86" height="13.84"/><rect class="cls-9" x="479.96" y="462.16" width="15.25" height="13.84"/><path class="cls-4" d="M468.05,509.92a1.83,1.83,0,1,0,1.83,1.83A1.82,1.82,0,0,0,468.05,509.92Z" transform="translate(-54 -44.96)"/><path class="cls-4" d="M474.38,509.92a1.83,1.83,0,1,0,1.83,1.83A1.83,1.83,0,0,0,474.38,509.92Z" transform="translate(-54 -44.96)"/><path class="cls-4" d="M480.71,509.92a1.83,1.83,0,1,0,1.83,1.83A1.83,1.83,0,0,0,480.71,509.92Z" transform="translate(-54 -44.96)"/><path class="cls-4" d="M487,509.92a1.83,1.83,0,1,0,1.82,1.83A1.83,1.83,0,0,0,487,509.92Z" transform="translate(-54 -44.96)"/><path class="cls-4" d="M544.46,510.87a.52.52,0,0,0-.73,0l-1.86,2,.76.71,1.86-2a.52.52,0,0,0,0-.73Z" transform="translate(-54 -44.96)"/><path class="cls-4" d="M544.46,510.87a.52.52,0,0,0-.73,0l-1.86,2,.76.71,1.86-2a.52.52,0,0,0,0-.73Z" transform="translate(-54 -44.96)"/><path class="cls-8" d="M547,508.08a1,1,0,0,0-1.33.05l-3.42,3.68,1.39,1.3,3.43-3.68a1,1,0,0,0-.05-1.34Z" transform="translate(-54 -44.96)"/><path class="cls-8" d="M544.46,510.87a.52.52,0,0,0-.73,0l-1.86,2,.76.71,1.86-2a.52.52,0,0,0,0-.73Z" transform="translate(-54 -44.96)"/><path class="cls-8" d="M547,508.08a1,1,0,0,0-1.33.05l-3.42,3.68,1.39,1.3,3.43-3.68a1,1,0,0,0-.05-1.34Z" transform="translate(-54 -44.96)"/><path class="cls-4" d="M547,508.08a1,1,0,0,0-1.33.05l-3.42,3.68,1.39,1.3,3.43-3.68a1,1,0,0,0-.05-1.34Z" transform="translate(-54 -44.96)"/><path class="cls-4" d="M542.42,513.06a4.78,4.78,0,0,0-.42-.34,5.38,5.38,0,0,0-.66-.38l-.25-.11a3.93,3.93,0,0,0-1.63-.26l-.33,0a4.12,4.12,0,0,0-2.31,7.1,4.08,4.08,0,0,0,2.95,1.1,1.87,1.87,0,0,0,.34,0,4.11,4.11,0,0,0,3.62-4.24,4,4,0,0,0-1-2.48A4.27,4.27,0,0,0,542.42,513.06Zm-.23,5.4a3.45,3.45,0,0,1-2.15,1.1l-.29,0a3.51,3.51,0,0,1-2.52-.94,3.52,3.52,0,0,1,2-6.06l.28,0a3.52,3.52,0,0,1,1.4.23l.21.09a3.16,3.16,0,0,1,.56.33,2.54,2.54,0,0,1,.36.29,3,3,0,0,1,.3.32,3.43,3.43,0,0,1,.82,2.11A3.51,3.51,0,0,1,542.19,518.46Z" transform="translate(-54 -44.96)"/><path class="cls-4" d="M763.77,416.12H646a10.78,10.78,0,0,1,10.78,10.78l.19,129.73,117.62.19V426.9A10.78,10.78,0,0,0,763.77,416.12Z" transform="translate(-54 -44.96)"/><path class="cls-17" d="M690.93,547a22.08,22.08,0,0,0,.18-2.46V536.5h-2.67v13.66h3.44l6.35-10.6a22,22,0,0,0-.18,2.67v7.93h2.67V536.5h-3.53Z" transform="translate(-54 -44.96)"/><polygon class="cls-17" points="649.52 505.2 660.82 505.2 660.82 502.99 652.53 502.99 652.53 499.56 660.2 499.56 660.2 497.35 652.53 497.35 652.53 493.75 661.24 493.75 661.24 491.54 649.52 491.54 649.52 505.2"/><path class="cls-17" d="M728.46,536.5l-1.94,7.91c-.24.93-.44,1.9-.61,2.91-.16-.84-.29-1.49-.39-1.93s-.83-3.4-2.18-8.89h-3.56l-3.7,13.66h3l2.08-8.82.47-2.13c.19.9.38,1.76.56,2.57s.86,3.62,2,8.38h3.37l1.81-7.27c.15-.54.39-1.77.73-3.68l.25,1.12.54,2.23,1.73,7.6h3L732,536.5Z" transform="translate(-54 -44.96)"/><path class="cls-17" d="M747.31,537.37a8.15,8.15,0,0,0-4.59-1.06,8.56,8.56,0,0,0-4.34.93,4.25,4.25,0,0,0-2,2.82l2.9.46a2.48,2.48,0,0,1,1.15-1.58,4.91,4.91,0,0,1,2.38-.49q3.15,0,3.15,1.83a1.36,1.36,0,0,1-.36,1,2.78,2.78,0,0,1-1,.63,19.08,19.08,0,0,1-2.53.61c-1.07.24-1.82.43-2.24.57a6.66,6.66,0,0,0-1.14.52,3.19,3.19,0,0,0-.87.71,2.93,2.93,0,0,0-.55,1,3.64,3.64,0,0,0-.2,1.29,3.21,3.21,0,0,0,1.46,2.83,7.62,7.62,0,0,0,4.26,1,8,8,0,0,0,4-.8A3.76,3.76,0,0,0,748.5,547l-2.92-.38a2.14,2.14,0,0,1-.91,1.33,3.71,3.71,0,0,1-2,.44c-1.82,0-2.74-.54-2.74-1.63a1.32,1.32,0,0,1,.29-.87,2.36,2.36,0,0,1,.87-.58,16.85,16.85,0,0,1,2.31-.59,20,20,0,0,0,3-.77,4.45,4.45,0,0,0,1.41-.83,3.07,3.07,0,0,0,.8-1.12,4,4,0,0,0,.28-1.51A3.49,3.49,0,0,0,747.31,537.37Z" transform="translate(-54 -44.96)"/><rect class="cls-17" x="623.32" y="485.91" width="80.74" height="2.46"/><rect class="cls-7" x="674.1" y="412.35" width="39.76" height="48.56"/><rect class="cls-7" x="612.5" y="467.83" width="101.36" height="12.61"/><rect class="cls-7" x="612.5" y="428.89" width="54.46" height="3.71"/><rect class="cls-7" x="612.5" y="420.72" width="54.46" height="3.71"/><rect class="cls-7" x="612.5" y="412.56" width="54.46" height="3.71"/><rect class="cls-7" x="612.5" y="457.84" width="19.5" height="3.71"/><rect class="cls-7" x="645.33" y="457.84" width="21.63" height="3.71"/><rect class="cls-7" x="612.5" y="449.67" width="19.5" height="3.71"/><rect class="cls-7" x="645.33" y="449.67" width="21.63" height="3.71"/><rect class="cls-7" x="612.5" y="441.51" width="19.5" height="3.71"/><rect class="cls-7" x="645.33" y="441.51" width="21.63" height="3.71"/><rect class="cls-7" x="641.22" y="402.41" width="71.48" height="3.71"/><rect class="cls-7" x="641.22" y="394.25" width="71.48" height="3.71"/><rect class="cls-7" x="641.22" y="386.08" width="71.48" height="3.71"/><rect class="cls-7" x="641.22" y="377.92" width="71.48" height="3.71"/><rect class="cls-7" x="612.5" y="377.92" width="21.63" height="29.22"/><path class="cls-12" d="M757.42,551c-.32.2-1.06,1.7-.76,1.94.43.4.61-.06.87-.42a8.11,8.11,0,0,1,1.77-1.64C758.48,551.21,758.33,550.68,757.42,551Z" transform="translate(-54 -44.96)"/><path class="cls-12" d="M753.12,548.72c-2,.31-2.3,1-1.86,1.37.11.09-1.11.73-.77,1.16a.63.63,0,0,0-.13.7,2.06,2.06,0,0,0,1,.73,13.17,13.17,0,0,0,2.17-.33c.17,0,2.65-.49,3.73-.82a18.89,18.89,0,0,0,2.62-1,19.55,19.55,0,0,0-.52-4C757.87,547,753.24,548.7,753.12,548.72Z" transform="translate(-54 -44.96)"/><path class="cls-12" d="M787.93,542.39c-2.49-1.1-8.72,1.33-2.34,7,5.2,4.62,13.9,15.93,17.41,18.62.63.49,6.43-6.66,6.92-8.2C811.06,556.27,794.47,545.26,787.93,542.39Z" transform="translate(-54 -44.96)"/><path class="cls-10" d="M797.92,545.89a23.05,23.05,0,0,0-7.77,9.56C795.18,560,800,567.08,803,568c3.85,1.21,10.47-4.52,7.79-10.32C809.75,555.43,804.7,550.26,797.92,545.89Z" transform="translate(-54 -44.96)"/><path class="cls-12" d="M758.8,546.74a16.46,16.46,0,0,1,.86,3.94c4.77-1.63,22.74-1.6,27.45-2.42A2.76,2.76,0,0,0,788,548c1.32-.71,2.7-2.52,1-5C787.1,540.17,766.7,544.22,758.8,546.74Z" transform="translate(-54 -44.96)"/></g><rect class="cls-21" x="42" y="371.41" width="758" height="102.93"/></g><path class="cls-7" d="M718.74,265.12c-55.3,12.82-87.61-141.68-166.61-114.25-41,14.22-55.65,57.73-105.33,90.53-51.76,34.17-61.3-50.82-108.54-50.82-49.76,0-45.9,208.32-106.7,116.89-38.28-57.57-73.13,66.46-81.52,81.75s-26,26.15-38,27.15H843.86C788,379.37,821.33,241.33,718.74,265.12Z" transform="translate(-54 -44.96)"/><path class="cls-8" d="M636.51,405.59a10.78,10.78,0,0,0,10.78,10.78h40.84V310.08H636.51Z" transform="translate(-54 -44.96)"/><path class="cls-9" d="M381.65,375.27H347.28a1.94,1.94,0,0,1-2.06-2.29l.53-4.32a1.93,1.93,0,0,0-2.06-2.29H324.24a4.29,4.29,0,0,0-4,3.47l-5.42,44.24a1.94,1.94,0,0,0,2.06,2.29H375.4a4.31,4.31,0,0,0,4-3.47l4.32-35.34A1.93,1.93,0,0,0,381.65,375.27Z" transform="translate(-54 -44.96)"/><path class="cls-10" d="M370.58,377.56a2.88,2.88,0,0,0-2.82-2.29H333.4a2.88,2.88,0,0,1-2.82-2.29l-.9-4.32a2.88,2.88,0,0,0-2.82-2.29H307.4a2.88,2.88,0,0,0-2.82,3.47l9.27,44.24a2.89,2.89,0,0,0,2.82,2.29h58.5A2.88,2.88,0,0,0,378,412.9Z" transform="translate(-54 -44.96)"/><path class="cls-11" d="M369.32,401.6a1.24,1.24,0,0,0-1.21-1H350.78a1.23,1.23,0,0,0-1.21,1.49l1.48,7.11a1.24,1.24,0,0,0,1.22,1H369.6a1.24,1.24,0,0,0,1.21-1.49Z" transform="translate(-54 -44.96)"/><path class="cls-12" d="M281.11,315.76a7.88,7.88,0,0,1-2.41.24c.88.2.68.72,1.57,1.05.38,0,1.87-.73,1.77-1.1C281.94,315.37,281.52,315.63,281.11,315.76Z" transform="translate(-54 -44.96)"/><path class="cls-12" d="M284.19,318.25c-.16-.08-2.41-1.21-3.47-1.6a21.52,21.52,0,0,0-2.68-.81,20.1,20.1,0,0,0-2,3.52c1.48.58,6.21,2,6.32,2.06,1.75.92,2.45.57,2.31,0,0-.13,1.33.09,1.31-.46a.63.63,0,0,0,.53-.48,2.15,2.15,0,0,0-.39-1.21A13.82,13.82,0,0,0,284.19,318.25Z" transform="translate(-54 -44.96)"/><path class="cls-12" d="M254.09,301c-1.48-.23-3.67.38-3.83,3.42-.17,3.31,18.55,12.36,26.38,15.11a15.86,15.86,0,0,1,1.68-3.66c-4.79-1.58-19.11-12.42-23.36-14.61A2.79,2.79,0,0,0,254.09,301Z" transform="translate(-54 -44.96)"/><path class="cls-12" d="M247.82,276.37c-.38-.71-8.6,3.42-9.68,4.61-2.5,2.77,8.09,19.63,12.87,24.94,1.81,2,8.49,2.37,5-5.42C253.18,294.15,249.92,280.26,247.82,276.37Z" transform="translate(-54 -44.96)"/><path class="cls-13" d="M252.59,287.21c-1.43-4.77-3-9.75-4-11.79-.17-.31-.33-.06-.71-.12-1.67-.25-9.31,3.76-10.44,5-3.4,3.76,8.93,21.88,12.82,26.23,3.67,4.22,19.19,11.55,26.08,14l2.34-5.56c-2.78-.92-19.36-12.2-21.1-13.3C257.38,301.16,254,292,252.59,287.21Z" transform="translate(-54 -44.96)"/><path class="cls-14" d="M168.14,333c-.41,2,.2,4.29-.15,6.3-.43,2.52-2,3.24-3.11,4.83-1.28,1.88-1.87,5.41-1.4,8.42a44.81,44.81,0,0,0,1.4,5.13,11.94,11.94,0,0,1,.38,5.57c-.61,2.68-3.86,4.76-3.86,16.1,0,10.36,7.4,14.39,9.49,16.92V329.14l-.95.92A5.49,5.49,0,0,0,168.14,333Z" transform="translate(-54 -44.96)"/><path class="cls-14" d="M176.78,357.69a44.81,44.81,0,0,0,1.4-5.13c.47-3-.12-6.54-1.4-8.42-1.09-1.59-2.69-2.31-3.11-4.83-.35-2,.26-4.34-.16-6.3a5.42,5.42,0,0,0-1.79-2.95l-.95-.92v67.14c2.09-2.53,9.49-6.56,9.49-16.92,0-11.34-3.26-13.42-3.86-16.1A11.94,11.94,0,0,1,176.78,357.69Z" transform="translate(-54 -44.96)"/><path class="cls-10" d="M180.24,373.13c-.49.64-.27,1.6-.71,2.28-.55.84-1.77.8-2.7,1.18a3,3,0,0,0-1.82,2.82,11.61,11.61,0,0,0,.52,2.15,2.43,2.43,0,0,1-.26,2.11c-.69.87-3.23,1-4.31,5.18-1,3.8,3.95,6.66,5.22,8l6.41-24.61-.78.16A2.48,2.48,0,0,0,180.24,373.13Z" transform="translate(-54 -44.96)"/><path class="cls-10" d="M183.61,376.47c-.05-.8.61-1.54.49-2.34a2.5,2.5,0,0,0-1-1.42l-.59-.51-6.41,24.61c1.75-.54,7.45-.63,8.44-4.42,1.09-4.16-1.06-5.53-1.24-6.63a2.48,2.48,0,0,1,.81-2,11.48,11.48,0,0,0,1.5-1.62,3,3,0,0,0-.21-3.35C184.76,378,183.68,377.47,183.61,376.47Z" transform="translate(-54 -44.96)"/><path class="cls-4" d="M158.66,394.58s4.61,4.94,4.61,8.27a14.67,14.67,0,0,1-.79,3.76,7.5,7.5,0,0,0,7.13,9.76h12.18a7.51,7.51,0,0,0,7.13-9.76,14.67,14.67,0,0,1-.79-3.76c0-3.33,4.6-8.27,4.6-8.27Z" transform="translate(-54 -44.96)"/><polygon class="cls-7" points="704.81 170.25 714.16 170.25 715.43 160.04 700.27 160.04 704.81 170.25"/><path class="cls-7" d="M734.43,178.56,723.79,177l7,12.71,8.86-2.9c0-.12,0-4.66,0-4.66C739.66,179.21,737.32,178.56,734.43,178.56Z" transform="translate(-54 -44.96)"/><path class="cls-7" d="M730.79,194.44l-7,12.7,10.64-1.6c2.89,0,5.23-.65,5.23-3.54,0,0,0-4.55,0-4.66Z" transform="translate(-54 -44.96)"/><path class="cls-11" d="M721.76,192.61s72.47-.15,72.6,0C785.84,162.6,725.79,179.31,721.76,192.61Z" transform="translate(-54 -44.96)"/><path class="cls-7" d="M721.76,192.61c4,13.29,64.08,30,72.6,0C794.23,192.75,721.76,192.61,721.76,192.61Z" transform="translate(-54 -44.96)"/><path class="cls-7" d="M764.89,182.68c-26.28,0-42.86,9.83-43.12,9.93h72.59C794.23,192.46,791.12,182.68,764.89,182.68Z" transform="translate(-54 -44.96)"/><path class="cls-11" d="M764.89,202.54c26.23,0,29.34-9.79,29.47-9.93H721.77C722,192.71,738.61,202.54,764.89,202.54Z" transform="translate(-54 -44.96)"/><polygon class="cls-7" points="740.36 147.65 740.36 147.64 740.36 147.64 740.36 147.65"/><path class="cls-11" d="M464.89,153.92a9.18,9.18,0,0,0-7,3.45h14.06A9.18,9.18,0,0,0,464.89,153.92Z" transform="translate(-54 -44.96)"/><path class="cls-11" d="M430.39,150c-3,0-5.29,3.58-8,2.94-5.93-1.38-8.36-9-14.87-9-5,0-7.94,6.23-12.57,5.81-7.35-.67-10.66-10.58-18.57-10.58-7.31,0-10.9,8.48-17.65,9.23-4,.44-6.89-4.33-11.21-4.33-8.16,0-8.87,3.24-16.38,5.58-2.16.67-3.81,4.87-6.24,4.87a8.74,8.74,0,0,0-7,2.9H442.63A14.15,14.15,0,0,0,430.39,150Z" transform="translate(-54 -44.96)"/><path class="cls-11" d="M276.89,205.92a9.18,9.18,0,0,0-7,3.45h14.06A9.18,9.18,0,0,0,276.89,205.92Z" transform="translate(-54 -44.96)"/><path class="cls-11" d="M242.39,202c-3,0-5.29,3.58-8,2.94-5.93-1.38-8.36-9-14.87-9-5,0-7.94,6.23-12.57,5.81-7.35-.67-10.66-10.58-18.57-10.58-7.31,0-10.9,8.48-17.65,9.23-4,.44-6.89-4.33-11.21-4.33-8.16,0-6.25,4.12-16.38,5.58-5.94.85-3.81,4.87-6.24,4.87a8.74,8.74,0,0,0-7,2.9H254.63A14.15,14.15,0,0,0,242.39,202Z" transform="translate(-54 -44.96)"/><rect class="cls-11" x="430.28" y="328.63" width="89.93" height="31.55"/><path class="cls-4" d="M345.06,149.15H605.42a14.8,14.8,0,0,1,14.8,14.8V321.42a14.81,14.81,0,0,1-14.81,14.81H345.06a14.81,14.81,0,0,1-14.81-14.81V164A14.81,14.81,0,0,1,345.06,149.15Z"/><rect class="cls-8" x="340.08" y="157.78" width="270.32" height="152"/><path class="cls-15" d="M602.22,404.92h-146a5.73,5.73,0,1,0,0,11.45H602.22a5.73,5.73,0,0,0,0-11.45Z" transform="translate(-54 -44.96)"/><rect class="cls-11" x="367.02" y="155.68" width="216.44" height="140.25"/><rect class="cls-9" x="367.02" y="143.78" width="216.44" height="16.47"/><rect class="cls-4" x="381" y="168.41" width="187" height="112"/><rect class="cls-11" x="465.17" y="180.48" width="14.61" height="3.49"/><rect class="cls-11" x="481.76" y="180.48" width="18.21" height="3.49"/><rect class="cls-11" x="503.71" y="180.48" width="6.65" height="3.49"/><rect class="cls-11" x="465.17" y="186.01" width="5.26" height="3.49"/><rect class="cls-11" x="473.13" y="186.01" width="15.3" height="3.49"/><rect class="cls-11" x="387.73" y="210.99" width="31.04" height="3.16"/><rect class="cls-11" x="387.73" y="176.13" width="31.04" height="28.47"/><rect class="cls-11" x="387.73" y="219.87" width="31.04" height="3.16"/><rect class="cls-11" x="387.73" y="228.75" width="31.04" height="3.16"/><rect class="cls-11" x="387.73" y="237.63" width="31.04" height="3.16"/><rect class="cls-11" x="387.73" y="246.51" width="31.04" height="3.16"/><rect class="cls-11" x="387.73" y="255.39" width="31.04" height="3.16"/><path class="cls-4" d="M629.25,198.48a1.76,1.76,0,1,0,1.76,1.76A1.76,1.76,0,0,0,629.25,198.48Z" transform="translate(-54 -44.96)"/><circle class="cls-4" cx="568.21" cy="155.27" r="1.76"/><rect class="cls-4" x="392.68" y="179.59" width="21.13" height="3.56"/><rect class="cls-4" x="392.68" y="185.51" width="21.13" height="3.56"/><rect class="cls-4" x="392.68" y="191.44" width="21.13" height="3.56"/><rect class="cls-4" x="392.68" y="197.36" width="21.13" height="3.56"/><path class="cls-7" d="M500,221.09A8.87,8.87,0,1,0,508.9,230,8.86,8.86,0,0,0,500,221.09Z" transform="translate(-54 -44.96)"/><path class="cls-7" d="M608.76,227.56a2.4,2.4,0,1,0,2.4,2.4A2.39,2.39,0,0,0,608.76,227.56Z" transform="translate(-54 -44.96)"/><path class="cls-7" d="M608.76,225.36a4.6,4.6,0,1,0,4.6,4.6A4.6,4.6,0,0,0,608.76,225.36Zm0,8.38a3.79,3.79,0,1,1,3.78-3.78A3.78,3.78,0,0,1,608.76,233.74Z" transform="translate(-54 -44.96)"/><rect class="cls-7" x="438" y="198.41" width="123" height="74"/><polygon class="cls-22" points="340.62 293.01 483.05 344.4 483.05 126.08 340.62 177.47 340.62 293.01"/><path class="cls-17" d="M265.39,307.51v84.72a7.14,7.14,0,1,0,14.28,0l0-84.76Z" transform="translate(-54 -44.96)"/><path class="cls-9" d="M257.08,257.06a8.1,8.1,0,0,0-8.1,8.1V299a8.11,8.11,0,0,0,8.11,8.11l39,0L296,257Z" transform="translate(-54 -44.96)"/><polygon class="cls-11" points="205.05 210.78 205.05 263.42 215.75 263.39 215.73 210.76 205.05 210.78"/><polygon class="cls-11" points="175.65 224.53 175.65 249.65 194.98 256.27 194.96 217.89 175.65 224.53"/><polygon class="cls-8" points="242.08 262.07 331.49 293.01 331.49 180.98 242.04 212.08 242.08 262.07"/><path class="cls-17" d="M395.15,271.56l0,20.8a11.53,11.53,0,0,0,0-20.8Z" transform="translate(-54 -44.96)"/><path class="cls-9" d="M390.33,217.7a4.84,4.84,0,0,0-4.84,4.84V341.37a4.84,4.84,0,1,0,9.67,0V222.54A4.84,4.84,0,0,0,390.33,217.7Z" transform="translate(-54 -44.96)"/><path class="cls-12" d="M754.34,268.82c0-.43.21-.9-.38-.88-.38,0-.82,1.59-.72,2,.51.8,1,.5,1.34,1.33A8.1,8.1,0,0,1,754.34,268.82Z" transform="translate(-54 -44.96)"/><path class="cls-12" d="M752,267.81a9.78,9.78,0,0,0-1.26-1.3,2.41,2.41,0,0,0-1.23,0,.62.62,0,0,0-.4.54c-.53.11-.14,1.14-.27,1.15-.55,0-.8.65.33,1.83.07.07,2.07,3.53,2.83,4.58a23.57,23.57,0,0,0,3.15-2.4,13.92,13.92,0,0,0-1.14-1.95C753.47,269.46,752.08,267.92,752,267.81Z" transform="translate(-54 -44.96)"/><path class="cls-12" d="M780.08,266.48c-2.43,3.69-6.91,17.24-10.3,23.31-4.16,7.46,2.52,7.7,4.51,5.85,5.23-4.88,17.27-20.73,15-23.7C788.35,270.65,780.52,265.81,780.08,266.48Z" transform="translate(-54 -44.96)"/><path class="cls-10" d="M780.08,266.48c-1.71,2.6-4.74,10.12-8,16.08a52.81,52.81,0,0,0,6.43,4.23c.81.45,3.23,1.88,4.07,2.25,4.95-6.37,8.24-15.12,6.74-17.1C788.35,270.65,780.52,265.81,780.08,266.48Z" transform="translate(-54 -44.96)"/><path class="cls-12" d="M773.73,291.56c-3-3.73-16.48-15.6-19-20A15.91,15.91,0,0,1,751.5,274c4.26,7.13,16.86,23.67,20.07,22.83,2.94-.76,3.11-3,2.59-4.43A3,3,0,0,0,773.73,291.56Z" transform="translate(-54 -44.96)"/><path class="cls-12" d="M798.78,351.26c.1,1.17,3.36,59.5,3.36,59.5a4.8,4.8,0,0,0,3.74.83s5.25-59.53,5-62.22C809.4,350.56,799.74,352.21,798.78,351.26Z" transform="translate(-54 -44.96)"/><path class="cls-17" d="M805.67,410.76,802.55,409s-.67,1-1.22,1.65c-1.05,1.24-6.09,2.15-6.09,3.92,0,.89,1.88,1.69,3.41,1.75a7.21,7.21,0,0,0,3.69-.51c1-.6,3-1.13,3.3-1.68a2.56,2.56,0,0,0,.12-2.07C805.92,411.1,805.67,410.76,805.67,410.76Z" transform="translate(-54 -44.96)"/><path class="cls-12" d="M801.33,410.68a5.3,5.3,0,0,0,1.82,1.73c.66.37,2.61-.32,2.61-.32.16-1,.23-1.65.23-1.65l-3.54-1.6A7.66,7.66,0,0,1,801.33,410.68Z" transform="translate(-54 -44.96)"/><path class="cls-13" d="M793.74,307.07c-.56,4,8,102.55,8,102.55,0,.17,3.07,1.81,4.6.13,0,0,1.59-22.71,4.65-44.15,2.64-18.5,3.71-56.82,3.71-56.82C807.14,309.28,796.23,308.16,793.74,307.07Z" transform="translate(-54 -44.96)"/><path class="cls-12" d="M782.48,351.26c.11,1.17,3.36,59.5,3.36,59.5a4.8,4.8,0,0,0,3.74.83s5.26-59.53,5.06-62.22C793.11,350.56,783.45,352.21,782.48,351.26Z" transform="translate(-54 -44.96)"/><path class="cls-17" d="M789.37,410.76,786.25,409s-.66,1-1.21,1.65c-1,1.24-6.1,2.15-6.1,3.92,0,.89,1.88,1.69,3.41,1.75a10.41,10.41,0,0,0,3.7-.51c.9-.29,3-1.13,3.29-1.68a2.51,2.51,0,0,0,.12-2.07C789.63,411.1,789.37,410.76,789.37,410.76Z" transform="translate(-54 -44.96)"/><path class="cls-12" d="M785,410.68a5.22,5.22,0,0,0,1.81,1.73c.67.37,2.61-.32,2.61-.32.17-1,.24-1.65.24-1.65l-3.55-1.6A7.8,7.8,0,0,1,785,410.68Z" transform="translate(-54 -44.96)"/><path class="cls-13" d="M777.45,307.07c-.56,4,7.94,102.55,7.94,102.55,0,.17,3.08,1.81,4.6.13,0,0,1.6-22.71,4.65-44.15,2.65-18.5,2.25-36.05,3.72-37.2V308.78C790.84,309.28,779.94,308.16,777.45,307.07Z" transform="translate(-54 -44.96)"/><path class="cls-10" d="M776.87,305.46s-2.39,11.47-1.24,12.47c2.6,2.26,12.35.17,19.76-.74s21.09.6,21.44-.92c1-4.09-.85-13.12-.85-13.12Z" transform="translate(-54 -44.96)"/><path class="cls-12" d="M796.16,252c-.53.38-5.94,3.39-7.49,3.16,0,.42,1.05,5,.05,7.4.43,2.27,6.72,2.28,8.45-1.56C796.45,259.88,795.85,254.06,796.16,252Z" transform="translate(-54 -44.96)"/><path class="cls-12" d="M790.47,244.44c-2.85-.19-5.6.47-6.23,3.16-.23,1,.18,9.66,4.82,11,2,.55,5.73-2.8,5.89-5.09,0,0,.21-3.11.22-3.14C795.37,247.32,793.53,244.65,790.47,244.44Z" transform="translate(-54 -44.96)"/><path class="cls-17" d="M812.12,271.15c-1.74-4.78-3.75-7.32-8.57-8.48-1.61-.39-6.38-1.7-6.38-1.7s-3.38,2.94-5.61,3.1c-1.54.11-2.84-1.54-2.84-1.54a69,69,0,0,0-6.52,2.26c-3.89,2.25-4,6.06-4.18,9.22-2.27,31.51-3.69,36.12-2.7,37.87,2.42,4.27,42.56,1.44,41.82-3.84C814.65,290.46,812.65,272.63,812.12,271.15Z" transform="translate(-54 -44.96)"/><path class="cls-9" d="M796.88,243c-4.16-3.77-10.6.22-10.6.22-4.91.93-3.85,8.11-1.59,9.16-1.07-5.28,2.52-7,2.52-7,6.64-.1,9,7.83,8.51,9.88C795.72,255.29,803.14,248.7,796.88,243Z" transform="translate(-54 -44.96)"/><path class="cls-12" d="M795.05,249.14a2.8,2.8,0,0,0-1.27.44,36.35,36.35,0,0,0,1.33,3.5,2.73,2.73,0,0,0,1.56-2.15C796.64,250.14,795.84,249.11,795.05,249.14Z" transform="translate(-54 -44.96)"/><path class="cls-9" d="M819.14,252c-2.11-1.29-3.58-1.42-5.57-6.9-6.6-18.21-19.49-6.11-17.75-1.32.42,1.17,1.28,1.69,1.9.15,1-2.61,6.46-6.19,6.2,6.11-.06,3.24-2.86,8.19,7.12,11.2,9,2.72,3.25,6.37,4.31,8.51C818.07,275.2,829.54,258.39,819.14,252Z" transform="translate(-54 -44.96)"/><path class="cls-17" d="M796.93,241.24a1.81,1.81,0,0,0-1.13-.29,2.43,2.43,0,0,0-1.46.71,10.1,10.1,0,0,1,3.7,2.53C798.48,243.21,798.45,242.16,796.93,241.24Z" transform="translate(-54 -44.96)"/><path class="cls-12" d="M479,307.75a9.08,9.08,0,0,1-2.33.65c.9,0,.79.58,1.73.76.37,0,2.15-1.42,2-1.76C480.18,306.84,479.68,307.46,479,307.75Z" transform="translate(-54 -44.96)"/><path class="cls-12" d="M477,308.27a19.72,19.72,0,0,0-.21,4,10.11,10.11,0,0,1,2.92.17c2,0,2.46-3.5,1.64-4.28S479.62,309.49,477,308.27Z" transform="translate(-54 -44.96)"/><path class="cls-12" d="M446.79,270.28c-.4-.69-8.49,3.69-9.53,4.92-2.41,2.84,8.7,19.36,13.65,24.52,1.87,2,8.56,2.11,4.84-5.57C452.71,287.89,449,274.11,446.79,270.28Z" transform="translate(-54 -44.96)"/><path class="cls-12" d="M453.83,294.74c-1.49-.18-3.66.5-3.72,3.54-.07,3.31,24,14.43,26.68,14a16.49,16.49,0,0,1,1.73-3.47C473.68,307.42,459,297,454.71,295A3,3,0,0,0,453.83,294.74Z" transform="translate(-54 -44.96)"/><path class="cls-17" d="M456.2,294.94c-.17-.49-7.38-24.56-8.48-26.53-.17-.3-12,3.62-13.11,4.86-3.25,3.72,10.68,22.37,14.53,26.54,3.65,4.06,18.9,10.95,25.65,13.19l2.18-5.45c-2.72-.85-9.2-5.1-14.41-8.52C460.17,297.47,457.91,296,456.2,294.94Z" transform="translate(-54 -44.96)"/><path class="cls-12" d="M421.8,348.75c-.36,2.66,1.1,62.4,1.1,62.4a4.78,4.78,0,0,0,3.79-.58s6.95-58,7.12-59.17C432.79,352.29,423.26,350,421.8,348.75Z" transform="translate(-54 -44.96)"/><path class="cls-10" d="M427.5,410.53c-.51-.68-1.11-1.72-1.11-1.72l-3.22,1.53s-.28.33-.18,1.32a2.54,2.54,0,0,0,0,2.07c.29.57,2.3,1.54,3.18,1.9a10.68,10.68,0,0,0,3.66.74c1.53,0,3.46-.65,3.51-1.54C433.45,413.07,428.47,411.85,427.5,410.53Z" transform="translate(-54 -44.96)"/><path class="cls-10" d="M440,406.15c-.6-.8-1-.86-1-.86l-3.42,1s.26,1.18.34,2c.16,1.62-2.71,5.87-1.44,7.1.64.63,2.53-.16,3.64-1.22a7.4,7.4,0,0,0,2.21-3c.28-1.16,1.25-2.92,1.08-3.54A2.52,2.52,0,0,0,440,406.15Z" transform="translate(-54 -44.96)"/><path class="cls-12" d="M435.33,406.26a7.72,7.72,0,0,1,.54,2.08,5.28,5.28,0,0,0,2.51-.09c.73-.22,1.59-2.1,1.59-2.1-.6-.8-1-1.32-1-1.32Z" transform="translate(-54 -44.96)"/><path class="cls-9" d="M425,312.11c-7.48.86-17.27.41-19.81-.56-.19,2.11,2.43,29.12,5.53,55.24,1.48,12.49,24.94,40.35,24.94,40.35a4.22,4.22,0,0,0,4.12-1.28s-15.88-31.7-15.49-39.71C425.12,348.08,427.13,325.22,425,312.11Z" transform="translate(-54 -44.96)"/><path class="cls-12" d="M422.87,410s0,.67.12,1.66c0,0,1.9.82,2.59.49a5.18,5.18,0,0,0,1.92-1.62,7.71,7.71,0,0,1-1-1.9Z" transform="translate(-54 -44.96)"/><path class="cls-9" d="M421.67,308s-2.36,38.31-.9,56.94c1.69,21.59,1.84,44.36,1.84,44.36,1.42,1.77,4.55.32,4.6.16,0,0,15.74-97.81,15.43-101.84C440.09,308.55,429.13,309,421.67,308Z" transform="translate(-54 -44.96)"/><path class="cls-13" d="M407.49,302.58s-3.66,8.82-2.24,14.67a45.32,45.32,0,0,0,15,4.45l3-6.58s2.48,7.23,3.68,7.38c6.79.86,13.77.83,18.71-1.5l-1.51-10.6Z" transform="translate(-54 -44.96)"/><path class="cls-12" d="M433.5,251.38c0,2.11-1.38,7.79-2.25,8.78,1.19,4,7.42,4.89,8.16,2.7-.66-2.55,1-6.9,1.07-7.32C438.91,255.56,434,251.83,433.5,251.38Z" transform="translate(-54 -44.96)"/><path class="cls-17" d="M445.56,266c-.92-.72-6.15-3.14-6.15-3.14s-1.52,1.46-3,1.14c-2.19-.47-5.14-3.84-5.14-3.84s-4.9.64-6.55.8c-4.93.49-7.74,4.51-9.41,8.37-3.77,8.69-7.92,29-9,34.48a2.47,2.47,0,0,0,.84,2.41c8.5,6.94,32.41,8.17,36.85,6.76,3.41-1.08,1.15-26.73,4.45-37.27A8.59,8.59,0,0,0,445.56,266Z" transform="translate(-54 -44.96)"/><path class="cls-12" d="M368.3,242.62a15.33,15.33,0,0,0-1.68-1.41,2.07,2.07,0,0,0-1.27.08.65.65,0,0,0-.26.67c-.51.19.19,1.37.06,1.39-.56.07-.63.85.87,2.14.09.07,3.15,4,4.23,5.12a20.63,20.63,0,0,0,2.54-3.15,18.65,18.65,0,0,0-1.74-2.2C370.3,244.42,368.43,242.74,368.3,242.62Z" transform="translate(-54 -44.96)"/><path class="cls-12" d="M420.61,261.06c-4.4-.51-18.52,1.55-25.47,1.24-8.52-.37-5.74,5.71-3.2,6.66,6.71,2.49,26.27,6.15,27.93,2.81C420.58,270.32,421.4,261.16,420.61,261.06Z" transform="translate(-54 -44.96)"/><path class="cls-12" d="M394.79,263.58c-3.6-3.14-18.94-12.49-22.17-16.36a15.75,15.75,0,0,1-2.78,2.91c5.43,6.27,20.73,20.36,23.74,19,2.77-1.26,2.54-3.52,1.78-4.82A3,3,0,0,0,394.79,263.58Z" transform="translate(-54 -44.96)"/><path class="cls-17" d="M427.57,260.63c-14.26-1.32-32.81,1.53-33.33,1.57-1.64-1.16-3.9-2.64-6.28-4.21-5.2-3.43-11.68-7.7-13.53-9.86l-4.15,4.16c4.74,5.31,17.11,16.58,22.29,18.32,5.35,1.89,25.62,5.9,27.74,1.45C421,270.57,429.2,260.78,427.57,260.63Z" transform="translate(-54 -44.96)"/><path class="cls-10" d="M445.11,260a15.78,15.78,0,0,0,.34-8.78c-1.17-2.19-5.34,1.58-5.39,1.65a17,17,0,0,1,.09,8c-.68,2.5-2.28,4.22-1.28,10.33,1.44,8.78-3.88,17.57-2.15,18.73,1.57,1,7.56-3.07,9.11-12.52a15.56,15.56,0,0,0-.61-7.68A14,14,0,0,1,445.11,260Z" transform="translate(-54 -44.96)"/><path class="cls-12" d="M440.68,244.29c-3.05-.22-5.77,2.59-6,5.62,0,0-.22,3.15-.22,3.15-.16,2.28,3.11,6.12,5.13,5.84,4.78-.67,6.39-9.22,6.3-10.21C445.65,245.94,443.53,244.48,440.68,244.29Z" transform="translate(-54 -44.96)"/><path class="cls-10" d="M445.29,242.45a4.51,4.51,0,0,0-2.87-.81s.13-1.35-2.48-2.77c-2.09-1.15-6.21-.66-9.47,2.35a13.94,13.94,0,0,0-4.38,13.23,12.17,12.17,0,0,1-2.56,10.77,13.58,13.58,0,0,0-2.85,8.42c0,10.91,8.21,17,10.89,16.22,2.94-.86-3.05-12,1.34-21.42,3-6.56,1-8.87.6-11.83-.56-3.87,1.51-8.65,3.26-10.33,1.92-1.85,5.46-1.85,5.46-1.85s4.88,1.78,2.33,9.6C447.39,252,448.39,244.57,445.29,242.45Z" transform="translate(-54 -44.96)"/><path class="cls-12" d="M433.13,250.28a2.75,2.75,0,0,0,1.25,2.35c.45-.76,1.37-2.3,1.8-3.28a2.48,2.48,0,0,0-1.2-.61C434.2,248.6,433.27,249.5,433.13,250.28Z" transform="translate(-54 -44.96)"/><path class="cls-12" d="M645.59,351.33c-.89,1-10.64,0-12.25-1.07,0,2.69,9.1,59.74,9.1,59.74a4.81,4.81,0,0,0,3.68-1.08S645.57,352.5,645.59,351.33Z" transform="translate(-54 -44.96)"/><path class="cls-17" d="M628,326.05l.23,3.53c1.54,1.06,2.33,18.59,6.22,36.87,4.49,21.18,7.48,41.75,7.48,41.75a3.78,3.78,0,0,1,4.58-.45s1.17-57.2,1.33-85.5c-1.37.34-2.8.64-4.31,1C638.33,324.3,633.19,325.38,628,326.05Z" transform="translate(-54 -44.96)"/><path class="cls-18" d="M646.91,408.78a7.62,7.62,0,0,1-.8-.91s-2.85-.79-3.8,1.29c0,0-.09,2.47.54,3.39a17.16,17.16,0,0,0,3.54,3.45,7.3,7.3,0,0,0,3.72.26c1.52-.16,3.35-1.09,3.28-2C653.28,412.51,648.05,410,646.91,408.78Z" transform="translate(-54 -44.96)"/><path class="cls-19" d="M646.14,410.1c-1.45-1.09-4.06.6-2.42,3a13.57,13.57,0,0,0,3,2.91,6.1,6.1,0,0,0,3.13.22c1.28-.14,2.82-.92,2.77-1.67C652.5,413.13,647.63,411.22,646.14,410.1Z" transform="translate(-54 -44.96)"/><path class="cls-12" d="M587.91,217.38c-.32-.21-1.5,1-1.59,1.35,0,1,.6.92.51,1.81a8,8,0,0,1,1-2.21C588.05,218,588.43,217.66,587.91,217.38Z" transform="translate(-54 -44.96)"/><path class="cls-12" d="M586.4,214.63a13.75,13.75,0,0,0-.4-2.15,2.12,2.12,0,0,0-1-.76.65.65,0,0,0-.62.36c-.52-.19-.73,1.18-.84,1.1-.48-.3-1,.26-.7,2.21,0,.12-.09,5.06,0,6.64a19.42,19.42,0,0,0,4-.81,18.53,18.53,0,0,0,.06-2.8C586.79,217.3,586.42,214.8,586.4,214.63Z" transform="translate(-54 -44.96)"/><path class="cls-12" d="M586.8,220.93a15.75,15.75,0,0,1-4,.47c.19,8.3,3,28.9,6.2,29.76,2.93.79,4.19-1.09,4.44-2.58a3,3,0,0,0,0-.9C592.68,243,586.81,226,586.8,220.93Z" transform="translate(-54 -44.96)"/><path class="cls-12" d="M594.53,246.91c-6.33-5.72-8.06.74-6.71,3.09,3.58,6.19,16.32,21.49,19.72,20,1.48-.66,8-7.2,7.4-7.78C611.88,259,599.69,251.58,594.53,246.91Z" transform="translate(-54 -44.96)"/><path class="cls-10" d="M606.1,254.29a125.6,125.6,0,0,1-10.9-8.12c-.44-.39-.86-.74-1.3-1.06-.5-2-1.28-4.66-2.09-7.47-1.78-6.14-4-13.79-4-16.71l-6,.49c.17,7.3,2.33,24.34,5.21,29.15,2.92,5,16.79,21.6,20.17,26,1,1.34,8.87-16.91,8.51-16.88C612.75,259.87,610.2,257.14,606.1,254.29Z" transform="translate(-54 -44.96)"/><path class="cls-12" d="M685.38,290.13a8.12,8.12,0,0,1-2.17,1.07c.89-.13.89.43,1.84.43.36-.12,1.49-1.35,1.27-1.66C686,289.46,685.72,289.85,685.38,290.13Z" transform="translate(-54 -44.96)"/><path class="cls-12" d="M691.31,291.64a14.64,14.64,0,0,0-2.17-.29c-.18,0-2.69-.27-3.81-.26a20.93,20.93,0,0,0-2.79.2,19.88,19.88,0,0,0-.62,4c1.58,0,6.51-.34,6.63-.32,2,.24,2.49-.34,2.17-.8-.08-.11,1.27-.39,1.06-.89a.66.66,0,0,0,.33-.65A2.19,2.19,0,0,0,691.31,291.64Z" transform="translate(-54 -44.96)"/><path class="cls-12" d="M655.8,285.88a2.92,2.92,0,0,0-.91.06c-1.47.31-3.29,1.66-2.37,4.55,1,3.16,21.73,5,30,4.78a15.39,15.39,0,0,1,.28-4C677.79,291.47,660.55,286.42,655.8,285.88Z" transform="translate(-54 -44.96)"/><path class="cls-12" d="M640.28,265.1c-.61-.53-6.83,6.25-7.42,7.75-1.35,3.47,14.53,15.48,20.88,18.75,2.42,1.24,8.79-.79,2.77-6.84C651.6,279.83,643.62,268,640.28,265.1Z" transform="translate(-54 -44.96)"/><path class="cls-10" d="M665.9,287c-2.85-.69-5.54-1.33-7.56-1.74-.34-.42-.71-.83-1.12-1.25a125.51,125.51,0,0,1-8.63-10.51c-3-4-4.9-6.57-8.16-11.57-.19-.3-10.3,15.58-8.92,16.55,4.53,3.17,16.54,11.25,21.7,13.93,4.95,2.65,22.06,4,29.36,3.82l.21-6C679.86,290.38,672.12,288.53,665.9,287Z" transform="translate(-54 -44.96)"/><path class="cls-12" d="M613.27,350c.06,1.17,1.28,57.58,1.28,57.58a4.72,4.72,0,0,0,3.7,1s7.34-57.3,7.24-60C623.91,349.63,614.2,350.93,613.27,350Z" transform="translate(-54 -44.96)"/><path class="cls-17" d="M609.84,305.61c-.7,4,4.3,100.77,4.3,100.77a3.78,3.78,0,0,1,4.59.29s2.34-20.64,6.18-41.95c3.31-18.4,3.55-36,5.05-37.05l.72-19.59C623.15,308.29,612.29,306.79,609.84,305.61Z" transform="translate(-54 -44.96)"/><path class="cls-4" d="M635.24,310.75a217,217,0,0,1-22.52,1.15c-1.73,0-3.44.07-5.1,0,.19,6.28-.32,10.12.46,15.62,14.8,2.45,31,3.44,37.24,1.41,1.13-.37,4.13-1.68,4.27-2.06a118.75,118.75,0,0,0-1.46-19.59A45.83,45.83,0,0,1,635.24,310.75Z" transform="translate(-54 -44.96)"/><path class="cls-12" d="M626.6,248.47c-.52.39-6,3.39-7.49,3.16,0,.43,1.24,4,.24,6.44.43,2.27,6.85,4.17,8.59.33C627.22,257.3,626.29,250.56,626.6,248.47Z" transform="translate(-54 -44.96)"/><path class="cls-12" d="M620.92,241c-2.85-.2-5.61.46-6.24,3.15-.23,1,.18,9.66,4.82,11,2,.56,5.73-2.8,5.89-5.08,0,0,.22-3.12.22-3.15C625.82,243.82,624,241.16,620.92,241Z" transform="translate(-54 -44.96)"/><path class="cls-10" d="M635.69,258.75c-5.3-.66-8-.8-8-.8a5.91,5.91,0,0,1-4.3,1.47c-3-.19-4.08-1.35-4.08-1.35s-4.53,2-6.06,2.59c-4.61,1.84-5.64,5.72-5.24,9.91.09,1-3.41,34-.36,55.44.71-.05,2.58-.08,3.49-.1l.67-13.93,3,13.91c9.49,0,23.82.7,30.22-.88l.26-12.62,2,11.79c.48-.29,2.2-1,2.35-1.4.57-19.74-6.08-52.78-6.47-55.24S639.94,259.28,635.69,258.75Z" transform="translate(-54 -44.96)"/><path class="cls-18" d="M614.52,406.48a10.58,10.58,0,0,1-.77.94c-1.1,1.21-6.25,3.92-6.31,5.69,0,.89,1.81,1.77,3.34,1.88a7.34,7.34,0,0,0,3.72-.37,17.05,17.05,0,0,0,3.42-3.57c.61-.93.44-3.4.44-3.4C617.34,405.61,614.52,406.48,614.52,406.48Z" transform="translate(-54 -44.96)"/><path class="cls-19" d="M614.56,408.7c-1.46,1.17-6.26,3.23-6.31,4.72,0,.75,1.53,1.49,2.81,1.58a6.17,6.17,0,0,0,3.13-.31,14,14,0,0,0,2.88-3C618.64,409.18,616,407.57,614.56,408.7Z" transform="translate(-54 -44.96)"/><path class="cls-13" d="M626.89,237.52c-4.44-3.51-12-.15-13.95,4.41-1.48,3.4-2.84,1-2.7.13-.45,2.26.5,4.23,4.88,3.91.92-.06-2,.84-2,.84s4.64,9.71,11.87,7.36a11.07,11.07,0,0,0,4-2.79s-2.34.38-1.1-1.52C630.28,246.17,630.82,240.62,626.89,237.52Z" transform="translate(-54 -44.96)"/><path class="cls-17" d="M224.73,410.94c-.55-.65-1.22-1.65-1.22-1.65L220.39,411a1.92,1.92,0,0,0-.09,1.33,2.56,2.56,0,0,0,.12,2.07c.33.55,2.39,1.39,3.3,1.68a10.39,10.39,0,0,0,3.69.51c1.53-.06,3.41-.86,3.41-1.75C230.82,413.09,225.78,412.18,224.73,410.94Z" transform="translate(-54 -44.96)"/><path class="cls-12" d="M224.41,409.19l-4.19.75a13.81,13.81,0,0,0,.08,2.41s1.95.69,2.61.33a5.28,5.28,0,0,0,1.82-1.74A1.52,1.52,0,0,1,224.41,409.19Z" transform="translate(-54 -44.96)"/><path class="cls-14" d="M211.41,312v19.62c1.46,1.15,10,23.38,13.71,36.2.12.42-5.35,38.12-5.35,42.15,1.53,1.69,4.56,0,4.6-.13,0,0,11.82-19.09,13.72-42.15,2.21-26.79-5.47-55.25-5.77-57.4C229.83,311.43,218.92,312.54,211.41,312Z" transform="translate(-54 -44.96)"/><path class="cls-17" d="M201.11,411.5c-.49-.69-1.08-1.74-1.08-1.74l-3.25,1.48s-.28.32-.19,1.32a2.55,2.55,0,0,0-.05,2.07c.29.57,2.19,1.26,3.16,1.94a7.25,7.25,0,0,0,3.64.8c1.53.05,3.47-.6,3.54-1.49C207,414.12,202.06,412.82,201.11,411.5Z" transform="translate(-54 -44.96)"/><path class="cls-12" d="M200.69,409.62l-4.14.45s-.05,1.49,0,2.49c0,0,1.88.84,2.58.53a5.32,5.32,0,0,0,1.94-1.59A2.24,2.24,0,0,1,200.69,409.62Z" transform="translate(-54 -44.96)"/><path class="cls-14" d="M200.43,307.62c-9.34,17.76,3,43.75,4.62,60.5,0,0-8.81,23.08-8.81,42.07,1.39,1.79,4.55.39,4.6.23,0-7.72,15.42-27.22,17.12-41.19,3.26-26.75,1-55.25.84-57.42C216.26,308.52,206.93,304.87,200.43,307.62Z" transform="translate(-54 -44.96)"/><path class="cls-12" d="M239.4,257.82c-.32,2.09-2.61,7.47-3.62,8.3.52,4.18,6.53,6,7.61,4-.24-2.62,2.1-6.65,2.24-7.06C244.08,262.81,239.79,258.34,239.4,257.82Z" transform="translate(-54 -44.96)"/><path class="cls-12" d="M247.05,252.3c-3-.7-5.53,1.3-6.22,4.26,0,0-.72,3.07-.72,3.07-.53,2.23,2.08,6.55,4.12,6.59,4.82.11,7.78-8.07,7.85-9.06C252.27,254.4,249.83,253,247.05,252.3Z" transform="translate(-54 -44.96)"/><path class="cls-13" d="M243.39,270.1s-1.73,1.19-3.16.64c-2.08-.82-4.46-4.61-4.46-4.61s-4.94-.41-6.58-.27c-14.73,1.27-26.16,16.3-33.22,56.93.68.26,2.51.75,3.33,1.11l5.59-12.21-2.29,13.75c11.92,9.37,31.32,9.24,35.17-.33a136,136,0,0,1,3.28-18.21c.49-2,1-3.86,1.52-5.6,2.49-8.48,5-13.88,5.4-15.24,1.32-4.1,4-8.58,1-11.88C248.17,273.33,243.39,270.1,243.39,270.1Z" transform="translate(-54 -44.96)"/><path class="cls-17" d="M240.23,270.74c-2.09-.82-4.45-4.62-4.45-4.62l-3.32-.33a14.65,14.65,0,0,0-3.28.07c5.08,4.73,11.75,15.46,11.75,15.46s5.23-3.88,6.88-8.09a44.14,44.14,0,0,0-4.42-3.13S241.66,271.29,240.23,270.74Z" transform="translate(-54 -44.96)"/><path class="cls-17" d="M242.06,246.12c-5.14,2.77-6.22,10.09-3.37,14.2,0,0,1.71-4.54,3.7-6.29,11.57,5.59,13.57,2.73,13.84,1.42C257.44,249.51,248.78,242.5,242.06,246.12Z" transform="translate(-54 -44.96)"/><path class="cls-12" d="M239,257a2.75,2.75,0,0,0,1.45,2.23,34.85,34.85,0,0,0,1.5-3.43,2.49,2.49,0,0,0-1.24-.5C239.89,255.18,239,256.16,239,257Z" transform="translate(-54 -44.96)"/><path class="cls-20" d="M228.18,281c-.26-3.25-10.32-1.5-8,3.31,3.1,6.54,13.53,19.64,14.49,20.5s3.65,1.61,6.42,2c.49-2,1-3.86,1.52-5.6C236.45,295.54,228.64,287.11,228.18,281Z" transform="translate(-54 -44.96)"/><path class="cls-12" d="M269.51,306.5a7.78,7.78,0,0,1-2.34.61c.9.06.78.6,1.71.79.38,0,1.74-1,1.58-1.35C270.27,306,269.9,306.31,269.51,306.5Z" transform="translate(-54 -44.96)"/><path class="cls-12" d="M272.94,308.48c-.17-.05-2.58-.82-3.68-1a21.2,21.2,0,0,0-2.77-.39,20.46,20.46,0,0,0-1.44,3.79c1.55.34,6.45,1,6.56,1.06,1.87.64,2.51.18,2.29-.33,0-.13,1.32-.12,1.22-.66a.66.66,0,0,0,.46-.56,2.15,2.15,0,0,0-.58-1.13A13.31,13.31,0,0,0,272.94,308.48Z" transform="translate(-54 -44.96)"/><path class="cls-13" d="M244.05,296.19a14.58,14.58,0,0,0-.84-1.45A128.64,128.64,0,0,1,237,282.67c-2.16-4.5-4.2-8.74-5.59-10.59a1.19,1.19,0,0,0-.94-.45c-1.69,0-8.62,5.14-9.55,6.56-2.78,4.24,12.19,20.25,16.69,23.94,4.29,3.61,20.75,8.47,27.93,9.81l1.45-5.85c-2.88-.48-10.07-3.89-15.85-6.64C248.45,298.2,245.94,297,244.05,296.19Z" transform="translate(-54 -44.96)"/><rect class="cls-8" x="406.79" y="266.57" width="74.86" height="13.84"/><rect class="cls-9" x="479.96" y="266.57" width="15.25" height="13.84"/><path class="cls-4" d="M468.05,318.92a1.83,1.83,0,1,0,1.83,1.83A1.82,1.82,0,0,0,468.05,318.92Z" transform="translate(-54 -44.96)"/><path class="cls-4" d="M474.38,318.92a1.83,1.83,0,1,0,1.83,1.83A1.83,1.83,0,0,0,474.38,318.92Z" transform="translate(-54 -44.96)"/><path class="cls-4" d="M480.71,318.92a1.83,1.83,0,1,0,1.83,1.83A1.83,1.83,0,0,0,480.71,318.92Z" transform="translate(-54 -44.96)"/><path class="cls-4" d="M487,318.92a1.83,1.83,0,1,0,1.82,1.83A1.83,1.83,0,0,0,487,318.92Z" transform="translate(-54 -44.96)"/><path class="cls-4" d="M542.63,318.89l-.76.71,1.86,2a.52.52,0,0,0,.73,0h0a.52.52,0,0,0,0-.73Z" transform="translate(-54 -44.96)"/><path class="cls-4" d="M542.63,318.89l-.76.71,1.86,2a.52.52,0,0,0,.73,0h0a.52.52,0,0,0,0-.73Z" transform="translate(-54 -44.96)"/><path class="cls-8" d="M543.68,319.39l-1.39,1.29,3.42,3.68a1,1,0,0,0,1.33.05h0a1,1,0,0,0,.05-1.34Z" transform="translate(-54 -44.96)"/><path class="cls-8" d="M542.63,318.89l-.76.71,1.86,2a.52.52,0,0,0,.73,0h0a.52.52,0,0,0,0-.73Z" transform="translate(-54 -44.96)"/><path class="cls-8" d="M543.68,319.39l-1.39,1.29,3.42,3.68a1,1,0,0,0,1.33.05h0a1,1,0,0,0,.05-1.34Z" transform="translate(-54 -44.96)"/><path class="cls-4" d="M543.68,319.39l-1.39,1.29,3.42,3.68a1,1,0,0,0,1.33.05h0a1,1,0,0,0,.05-1.34Z" transform="translate(-54 -44.96)"/><path class="cls-4" d="M540.11,312.33l-.34,0a4.08,4.08,0,0,0-2.95,1.1,4,4,0,0,0-1.31,2.86,4.14,4.14,0,0,0,3.62,4.24l.33,0a4.11,4.11,0,0,0,1.63-.27l.25-.11a3.64,3.64,0,0,0,.66-.38,4.78,4.78,0,0,0,.42-.34,4.27,4.27,0,0,0,.36-.38,4,4,0,0,0,1-2.48,4.11,4.11,0,0,0-3.62-4.24Zm2.2,6.33a3.08,3.08,0,0,1-.3.33,3.51,3.51,0,0,1-.36.29,3.86,3.86,0,0,1-.56.32l-.21.1a3.52,3.52,0,0,1-1.4.22l-.28,0a3.51,3.51,0,0,1,.55-7l.29,0a3.53,3.53,0,0,1,3.09,3.62A3.41,3.41,0,0,1,542.31,318.66Z" transform="translate(-54 -44.96)"/><path class="cls-4" d="M656.74,405.59A10.78,10.78,0,0,1,646,416.37H763.77a10.78,10.78,0,0,0,10.78-10.78V275.67l-117.62.19Z" transform="translate(-54 -44.96)"/><path class="cls-17" d="M698.05,290.27a21.85,21.85,0,0,0,.18,2.66l-6.35-10.6h-3.44V296h2.67v-8.06a22.08,22.08,0,0,0-.18-2.46L697.19,296h3.53V282.33h-2.67Z" transform="translate(-54 -44.96)"/><polygon class="cls-17" points="652.53 245.22 660.2 245.22 660.2 243 652.53 243 652.53 239.57 660.82 239.57 660.82 237.36 649.52 237.36 649.52 251.02 661.24 251.02 661.24 248.81 652.53 248.81 652.53 245.22"/><path class="cls-17" d="M731,289.93l-.54,2.23-.25,1.12c-.34-1.91-.58-3.14-.73-3.68l-1.81-7.27h-3.37q-1.75,7.16-2,8.38c-.18.82-.37,1.67-.56,2.57l-.47-2.13-2.08-8.82h-3l3.7,13.66h3.56c1.35-5.48,2.08-8.45,2.18-8.89s.23-1.08.39-1.93c.17,1,.37,2,.61,2.92l1.94,7.9H732l3.71-13.66h-3Z" transform="translate(-54 -44.96)"/><path class="cls-17" d="M747.8,289.42a4.64,4.64,0,0,0-1.41-.83,20,20,0,0,0-3-.77,14.26,14.26,0,0,1-2.31-.59,2.24,2.24,0,0,1-.87-.58,1.32,1.32,0,0,1-.29-.87c0-1.09.92-1.63,2.74-1.63a3.61,3.61,0,0,1,2,.45,2.12,2.12,0,0,1,.91,1.32l2.92-.38a3.76,3.76,0,0,0-1.73-2.62,8,8,0,0,0-4-.8,7.62,7.62,0,0,0-4.26,1,3.21,3.21,0,0,0-1.46,2.83,3.64,3.64,0,0,0,.2,1.29,2.93,2.93,0,0,0,.55,1,3.19,3.19,0,0,0,.87.71,6.66,6.66,0,0,0,1.14.52c.42.14,1.17.34,2.24.58a16.28,16.28,0,0,1,2.53.61,2.54,2.54,0,0,1,1,.63,1.32,1.32,0,0,1,.36.95q0,1.83-3.15,1.83a4.8,4.8,0,0,1-2.38-.49,2.48,2.48,0,0,1-1.15-1.58l-2.9.46a4.25,4.25,0,0,0,2,2.82,8.56,8.56,0,0,0,4.34.93,8.15,8.15,0,0,0,4.59-1.06,3.49,3.49,0,0,0,1.57-3.07,4,4,0,0,0-.28-1.51A3.07,3.07,0,0,0,747.8,289.42Z" transform="translate(-54 -44.96)"/><rect class="cls-17" x="623.32" y="254.2" width="80.74" height="2.46"/><rect class="cls-7" x="674.1" y="281.65" width="39.76" height="48.56"/><rect class="cls-7" x="612.5" y="262.13" width="101.36" height="12.61"/><rect class="cls-7" x="612.5" y="309.97" width="54.46" height="3.71"/><rect class="cls-7" x="612.5" y="318.13" width="54.46" height="3.71"/><rect class="cls-7" x="612.5" y="326.3" width="54.46" height="3.71"/><rect class="cls-7" x="612.5" y="281.02" width="19.5" height="3.71"/><rect class="cls-7" x="645.33" y="281.02" width="21.63" height="3.71"/><rect class="cls-7" x="612.5" y="289.18" width="19.5" height="3.71"/><rect class="cls-7" x="645.33" y="289.18" width="21.63" height="3.71"/><rect class="cls-7" x="612.5" y="297.35" width="19.5" height="3.71"/><rect class="cls-7" x="645.33" y="297.35" width="21.63" height="3.71"/><rect class="cls-7" x="641.22" y="336.44" width="71.48" height="3.71"/><rect class="cls-7" x="641.22" y="344.61" width="71.48" height="3.71"/><rect class="cls-7" x="641.22" y="352.77" width="71.48" height="3.71"/><rect class="cls-7" x="641.22" y="360.93" width="71.48" height="3.71"/><rect class="cls-7" x="612.5" y="335.43" width="21.63" height="29.22"/><path class="cls-12" d="M757.53,280c-.26-.36-.44-.82-.87-.42-.3.24.44,1.74.76,1.95.91.27,1.06-.27,1.88.11A8.11,8.11,0,0,1,757.53,280Z" transform="translate(-54 -44.96)"/><path class="cls-12" d="M757.3,281c-1.08-.33-3.56-.79-3.73-.82a13.17,13.17,0,0,0-2.17-.33,2.12,2.12,0,0,0-1,.73.64.64,0,0,0,.13.71c-.34.42.88,1.07.77,1.15-.44.35-.09,1.06,1.86,1.37.12,0,4.75,1.74,6.28,2.17a19.55,19.55,0,0,0,.52-4A18.89,18.89,0,0,0,757.3,281Z" transform="translate(-54 -44.96)"/><path class="cls-12" d="M803,264.48c-3.51,2.69-12.21,14-17.41,18.63-6.38,5.66-.15,8.09,2.34,7,6.54-2.88,23.13-13.88,22-17.43C809.43,271.14,803.63,264,803,264.48Z" transform="translate(-54 -44.96)"/><path class="cls-10" d="M803,264.48c-3,.94-7.82,8-12.85,12.56a23.14,23.14,0,0,0,7.77,9.57c6.78-4.38,11.83-9.55,12.87-11.8C813.47,269,806.85,263.28,803,264.48Z" transform="translate(-54 -44.96)"/><path class="cls-12" d="M788,284.54a2.76,2.76,0,0,0-.85-.31c-4.71-.81-22.68-.79-27.45-2.42a16.46,16.46,0,0,1-.86,3.94c7.9,2.52,28.3,6.58,30.16,3.83C790.66,287.06,789.28,285.25,788,284.54Z" transform="translate(-54 -44.96)"/></g></g></g></g></svg>