<?xml version="1.0" standalone="no"?><!DOCTYPE svg PUBLIC "-//W3C//DTD SVG 1.1//EN" "http://www.w3.org/Graphics/SVG/1.1/DTD/svg11.dtd" ><svg xmlns="http://www.w3.org/2000/svg"><metadata></metadata><defs><font id="Founder:FZLanTingHeiS-B-GB	Regular" horiz-adv-x="1000"><font-face font-family="FZLanTingHeiS-B-GB" font-weight="400" font-stretch="normal" units-per-em="1000" panose-1="2 0 0 0 0 0 0 0 0 0" ascent="896" descent="-299" x-height="0" bbox="16 -125 984 827" underline-thickness="50" underline-position="-249" unicode-range="U+4eba-9879" /><missing-glyph horiz-adv-x="1000"  /><glyph glyph-name="" unicode="&#x4eba;" d="M871 -104 q-303 171 -371 465 q-58 -278 -385 -476 q-38 60 -89 125 q373 194 388 575 q8 97 8 229 l142 0 q0 -8 -2 -76 q-1 -42 -2 -65 q19 -479 412 -646 q-64 -78 -101 -131 Z" /><glyph glyph-name="" unicode="&#x4f53;" d="M127 -119 l0 457 q-35 -56 -77 -113 q-5 30 -15 87 q-10 59 -14 86 q109 182 178 422 l131 -32 q-37 -118 -80 -218 l0 -392 q163 141 250 351 l-187 0 l0 116 l231 0 l0 173 l124 0 l0 -173 l264 0 l0 -116 l-221 0 q97 -214 262 -343 q-4 -9 -11 -27 q-29 -68 -45 -111 q-174 170 -249 355 l0 -249 l136 0 l0 -113 l-136 0 l0 -160 l-124 0 l0 160 l-135 0 l0 113 l135 0 l0 242 q-79 -193 -234 -361 q-29 65 -60 128 l0 -282 l-123 0 Z" /><glyph glyph-name="" unicode="&#x4fe1;" d="M340 -119 l0 364 l582 0 l0 -364 l-124 0 l0 49 l-335 0 l0 -49 l-123 0 ZM124 -119 l0 463 q-36 -60 -77 -117 q-12 82 -27 172 q110 188 170 422 l130 -32 q-33 -108 -75 -207 l0 -701 l-121 0 ZM304 606 l0 113 l261 0 l-31 89 l147 13 q3 -12 11 -37 q13 -43 19 -65 l258 0 l0 -113 l-665 0 ZM342 453 l0 99 l577 0 l0 -99 l-577 0 ZM342 299 l0 99 l577 0 l0 -99 l-577 0 ZM463 137 l0 -99 l335 0 l0 99 l-335 0 Z" /><glyph glyph-name="" unicode="&#x5168;" d="M905 386 q-91 48 -138 78 l0 -88 l-200 0 l0 -100 l284 0 l0 -120 l-284 0 l0 -115 l372 0 l0 -122 l-881 0 l0 122 l369 0 l0 115 l-279 0 l0 120 l279 0 l0 100 l-196 0 l0 85 q-67 -44 -142 -83 q-45 80 -71 116 q298 146 420 333 l156 -10 l-18 -28 q149 -182 400 -281 q-32 -53 -71 -122 ZM506 695 q-90 -107 -223 -199 l435 0 q-125 84 -212 199 Z" /><glyph glyph-name="" unicode="&#x5a92;" d="M716 333 l0 -67 l250 0 l0 -101 l-194 0 q75 -90 212 -146 q-28 -47 -59 -105 q-142 75 -209 167 l0 -202 l-113 0 l0 202 q-76 -97 -220 -178 q-34 58 -59 98 l-17 -23 l-69 75 q-52 -80 -156 -175 l-66 102 q95 82 143 156 q-57 60 -122 122 q30 126 52 278 l-60 0 l0 113 l75 0 l18 174 l116 -10 q-3 -19 -8 -57 q-3 -28 -15 -107 l145 0 l0 87 l74 0 l0 84 l112 0 l0 -84 l230 0 l0 84 l113 0 l0 -84 l74 0 l0 -100 l-74 0 l0 -303 l-173 0 ZM366 165 l0 101 l237 0 l0 67 l-169 0 l0 303 l-67 0 l0 -104 q-14 -240 -71 -372 q15 -14 43 -41 q29 -28 43 -41 l-51 -67 q143 68 218 154 l-183 0 ZM153 291 l58 -53 q39 99 53 298 l-67 0 q-20 -128 -44 -245 ZM546 489 l0 -61 l230 0 l0 61 l-230 0 ZM546 636 l0 -61 l230 0 l0 61 l-230 0 Z" /><glyph glyph-name="" unicode="&#x606f;" d="M126 219 l0 524 l260 0 q15 42 25 81 l142 -10 q-2 -4 -5 -13 q-8 -19 -26 -58 l352 0 l0 -524 l-347 0 l92 -115 l-106 -61 q-49 71 -87 122 l98 54 l-398 0 ZM372 -104 q-127 -3 -124 130 l0 155 l126 0 l0 -121 q-4 -66 63 -62 l134 0 q64 -3 74 50 q12 44 17 80 q57 -22 118 -41 q-8 -45 -28 -107 q-23 -87 -148 -84 l-232 0 ZM253 509 l0 -56 l493 0 l0 56 l-493 0 ZM253 648 l0 -56 l493 0 l0 56 l-493 0 ZM253 370 l0 -56 l493 0 l0 56 l-493 0 ZM130 -67 l-108 49 q51 101 91 207 l111 -40 q-49 -124 -94 -216 ZM870 -47 q-55 93 -123 192 l102 54 q75 -103 128 -182 l-107 -64 Z" /><glyph glyph-name="" unicode="&#x63cf;" d="M342 -121 l0 610 l596 0 l0 -609 l-121 0 l0 54 l-355 0 l0 -55 l-120 0 ZM37 526 l0 121 l86 0 l0 171 l121 0 l0 -171 l65 0 l0 -121 l-65 0 l0 -144 l70 16 q0 -53 0 -76 q1 -28 2 -51 l-72 -16 l0 -230 q5 -124 -104 -132 q-24 -3 -93 -6 q-5 46 -18 126 q30 -1 54 -1 q42 -2 40 46 l0 167 l-88 -22 l-12 136 l100 18 l0 169 l-86 0 ZM708 520 l0 81 l-138 0 l0 -81 l-121 0 l0 81 l-121 0 l0 116 l121 0 l0 104 l121 0 l0 -104 l138 0 l0 104 l121 0 l0 -104 l140 0 l0 -116 l-140 0 l0 -81 l-121 0 ZM698 160 l0 -116 l119 0 l0 116 l-119 0 ZM462 160 l0 -116 l119 0 l0 116 l-119 0 ZM817 379 l-119 0 l0 -114 l119 0 l0 114 ZM462 379 l0 -114 l119 0 l0 114 l-119 0 Z" /><glyph glyph-name="" unicode="&#x6c42;" d="M43 542 l0 118 l393 0 l0 162 l132 0 l0 -162 l168 0 q-55 60 -88 92 l92 63 q83 -75 124 -117 l-57 -38 l149 0 l0 -118 l-388 0 l0 -31 q32 -80 80 -154 q112 92 187 162 l93 -96 q-125 -96 -210 -155 q97 -103 258 -173 q-8 -14 -24 -42 q-33 -60 -48 -88 q-230 123 -336 314 l0 -228 q5 -150 -135 -153 q-60 -5 -160 -5 q-8 53 -24 126 q59 -3 115 -3 q77 -5 72 77 l0 106 q-188 -110 -356 -211 l-54 133 q235 114 410 220 l0 201 l-393 0 ZM258 278 q-62 65 -160 157 l86 80 q96 -83 168 -151 l-94 -86 Z" /><glyph glyph-name="" unicode="&#x7406;" d="M39 649 l0 119 l299 0 l0 -119 l-90 0 l0 -207 l84 0 l0 -117 l-84 0 l0 -211 q7 1 22 4 q22 3 69 12 q-1 -45 -1 -106 l251 0 l0 82 l-223 0 l0 106 l223 0 l0 75 l-218 0 l0 498 l559 0 l0 -498 l-220 0 l0 -75 l227 0 l0 -106 l-227 0 l0 -82 l264 0 l0 -111 l-659 0 l0 91 q-117 -21 -271 -55 l-20 130 q52 7 106 16 l0 230 l-86 0 l0 117 l86 0 l0 207 l-91 0 ZM710 486 l0 -93 l100 0 l0 93 l-100 0 ZM810 679 l-100 0 l0 -93 l100 0 l0 93 ZM491 679 l0 -93 l98 0 l0 93 l-98 0 ZM491 486 l0 -93 l98 0 l0 93 l-98 0 Z" /><glyph glyph-name="" unicode="&#x7533;" d="M82 55 l0 643 l349 0 l0 123 l138 0 l0 -123 l349 0 l0 -643 l-134 0 l0 48 l-215 0 l0 -225 l-138 0 l0 225 l-215 0 l0 -48 l-134 0 ZM216 343 l0 -117 l215 0 l0 117 l-215 0 ZM569 343 l0 -117 l215 0 l0 117 l-215 0 ZM216 575 l0 -116 l215 0 l0 116 l-215 0 ZM784 575 l-215 0 l0 -116 l215 0 l0 116 Z" /><glyph glyph-name="" unicode="&#x76ee;" d="M117 -119 l0 891 l765 0 l0 -891 l-136 0 l0 63 l-494 0 l0 -63 l-135 0 ZM252 187 l0 -126 l494 0 l0 126 l-494 0 ZM252 655 l0 -125 l494 0 l0 125 l-494 0 ZM252 420 l0 -123 l494 0 l0 123 l-494 0 Z" /><glyph glyph-name="" unicode="&#x7ba1;" d="M747 -117 l0 32 l-472 0 l0 -37 l-130 0 l0 497 l-90 0 l0 186 l40 0 q-8 7 -5 5 q-48 44 -72 64 q110 91 153 193 l127 -10 q-15 -31 -31 -58 l249 0 l0 -92 q66 86 93 160 l123 -10 q-12 -27 -28 -58 l264 0 l0 -92 l-157 0 l47 -60 l-116 -17 l-56 77 l-34 0 q-22 -34 -48 -70 q-5 2 -14 5 q-17 7 -48 18 l21 -55 l383 0 l0 -186 l-102 0 l0 -180 l-569 0 l0 -49 l600 0 l0 -263 l-128 0 ZM184 471 l0 -49 l633 0 l0 49 l-633 0 ZM747 60 l-472 0 l0 -59 l472 0 l0 59 ZM275 336 l0 -55 l441 0 l0 55 l-441 0 ZM291 586 l-56 77 l-29 0 q-40 -52 -96 -102 l332 0 q-3 8 -11 24 q-7 16 -10 24 l111 11 l-40 13 q12 15 23 30 l-157 0 q8 -9 23 -29 q15 -19 24 -30 l-114 -18 Z" /><glyph glyph-name="" unicode="&#x7cfb;" d="M151 416 l-35 110 q58 14 89 32 q55 29 147 89 q-177 -6 -260 -8 q-1 5 -3 16 q-14 64 -24 101 q548 11 840 34 l29 -113 q-166 -12 -363 -21 q-157 -92 -226 -128 q19 1 59 2 q120 3 186 5 q103 58 179 107 l98 -87 q-266 -143 -520 -257 q75 2 246 8 q80 3 119 4 q-9 10 -27 29 q-28 31 -41 45 l90 56 q104 -100 224 -227 l-94 -72 l-62 70 l-220 -8 l0 -163 q9 -147 -137 -148 q-49 -4 -132 -4 q-8 49 -28 122 q59 -3 105 -3 q60 -3 57 62 l0 129 q-31 -2 -92 -4 q-96 -4 -141 -7 q-44 -3 -94 -12 l-37 121 q62 12 119 37 q101 48 204 101 l-162 -9 q-44 -3 -93 -9 ZM885 -91 q-100 78 -252 180 l82 90 q140 -90 253 -168 l-83 -102 ZM96 -96 q-16 25 -58 81 q-11 15 -17 23 q122 71 251 174 l83 -88 q-149 -116 -259 -190 Z" /><glyph glyph-name="" unicode="&#x7ec6;" d="M73 140 l-34 109 q34 19 63 62 q2 2 5 7 q43 62 66 100 q-65 -2 -119 -11 l-34 106 q29 24 48 62 q61 108 120 252 l125 -38 q-88 -157 -154 -264 l79 3 q27 47 51 94 l84 -43 l0 185 l559 0 l0 -881 l-121 0 l0 61 l-319 0 l0 -61 l-119 0 l0 648 q-89 -147 -171 -265 q27 3 82 11 q36 5 55 7 q-6 -61 -6 -110 q-182 -16 -260 -34 ZM42 -72 l-19 126 q157 18 324 41 q-5 -68 -5 -120 q-130 -17 -300 -47 ZM708 299 l0 -239 l103 0 l0 239 l-103 0 ZM492 299 l0 -239 l102 0 l0 239 l-102 0 ZM811 647 l-103 0 l0 -236 l103 0 l0 236 ZM492 647 l0 -236 l102 0 l0 236 l-102 0 Z" /><glyph glyph-name="" unicode="&#x7edf;" d="M352 603 l0 109 l236 0 l-30 99 l141 12 l30 -111 l229 0 l0 -109 l-288 0 q-90 -110 -158 -187 l245 8 l-72 94 l92 55 q93 -108 193 -239 l-101 -66 l-39 55 q-22 0 -45 -2 l0 -271 q-2 -39 27 -36 l11 0 q34 -4 38 38 q7 42 13 119 q11 -4 30 -12 q45 -17 70 -26 q-7 -74 -18 -138 q-15 -94 -129 -92 l-47 0 q-121 -4 -116 118 l0 294 q-37 -3 -72 -4 q0 -2 0 -5 q-2 -58 -4 -83 q-1 -212 -203 -348 q-43 55 -86 102 q-152 -20 -257 -39 l-20 126 q230 26 341 41 q-2 -28 -4 -77 q0 -7 0 -11 q102 72 108 199 l3 87 q-50 -5 -81 -13 l-46 114 q46 33 80 76 q47 55 90 123 l-161 0 ZM74 144 l-33 109 q37 26 83 90 q26 35 54 80 q-73 -4 -125 -12 l-31 109 q31 27 65 93 q52 91 99 212 l132 -40 q-65 -111 -158 -255 q6 0 22 1 q39 2 60 3 q21 37 42 79 l108 -50 q-121 -189 -193 -293 l150 13 q-6 -58 -7 -108 q-189 -16 -268 -31 Z" /><glyph glyph-name="" unicode="&#x8be6;" d="M569 -119 l0 212 l-226 0 q3 -31 11 -75 q-71 -39 -143 -88 q-41 -29 -59 -46 l-75 103 q42 36 39 95 l0 302 l-88 0 l0 123 l214 0 l0 -417 l69 44 l0 75 l258 0 l0 103 l-214 0 l0 115 l214 0 l0 100 l-241 0 l0 115 l154 0 q-45 75 -89 141 l112 42 q41 -56 95 -139 l-101 -44 l154 0 q52 83 103 181 l128 -36 q-49 -75 -99 -145 l158 0 l0 -115 l-243 0 l0 -100 l215 0 l0 -115 l-215 0 l0 -103 l269 0 l0 -116 l-269 0 l0 -212 l-131 0 ZM182 579 q-57 91 -119 177 l110 64 q66 -84 127 -170 l-118 -71 Z" /><glyph glyph-name="" unicode="&#x8bf7;" d="M339 -117 l0 494 l574 0 l0 -348 q8 -139 -131 -139 q-57 -2 -152 -2 q-9 45 -27 98 q68 -3 127 -3 q64 -5 59 56 l0 2 l-327 0 l0 -158 l-123 0 ZM304 671 l0 83 l257 0 l0 68 l124 0 l0 -68 l270 0 l0 -83 l-270 0 l0 -45 l245 0 l0 -76 l-245 0 l0 -46 l287 0 l0 -84 l-690 0 l0 84 l279 0 l0 46 l-239 0 l0 76 l239 0 l0 45 l-257 0 ZM148 -116 l-71 98 q31 32 29 77 l0 333 l-80 0 l0 123 l203 0 l0 -404 q9 7 27 24 q27 24 42 36 q9 -78 20 -136 q-76 -60 -115 -97 q-32 -29 -55 -54 ZM176 576 q-50 74 -123 174 l101 60 q37 -44 113 -142 q12 -16 18 -23 l-109 -69 ZM462 293 l0 -50 l327 0 l0 50 l-327 0 ZM462 167 l0 -50 l327 0 l0 50 l-327 0 Z" /><glyph glyph-name="" unicode="&#x8ff0;" d="M321 505 l0 117 l231 0 l0 196 l131 0 l0 -196 l136 0 q-57 65 -108 115 l86 66 q68 -60 119 -112 l-84 -69 l110 0 l0 -117 l-259 0 l0 -88 l53 41 q108 -99 240 -230 l-100 -89 q-14 15 -44 48 q-100 110 -149 161 l0 -295 l-131 0 l0 283 q-74 -112 -195 -212 q-50 64 -89 107 q167 118 258 274 l-205 0 ZM76 -122 l-52 149 l105 95 l0 252 l-101 0 l0 125 l230 0 l0 -379 q65 -98 199 -97 q36 -1 93 -2 q58 0 131 0 q159 1 294 4 q-25 -79 -38 -127 q-312 0 -510 7 q-163 3 -234 109 q-74 -81 -117 -136 ZM189 567 q-78 128 -120 192 l113 59 q76 -108 126 -185 l-119 -66 Z" /><glyph glyph-name="" unicode="&#x9700;" d="M29 252 l0 93 l941 0 l0 -93 l-435 0 l-17 -54 l391 0 l0 -202 q4 -104 -106 -105 q-64 -2 -101 -2 q-10 56 -20 96 q40 -2 60 -2 q47 -3 42 39 l0 86 l-117 0 l0 -199 l-112 0 l0 199 l-111 0 l0 -200 l-112 0 l0 200 l-112 0 l0 -225 l-124 0 l0 315 l292 0 l14 54 l-373 0 ZM87 698 l0 83 l822 0 l0 -83 l-348 0 l0 -47 l386 0 l0 -204 l-121 0 l0 123 l-265 0 l0 -196 l-125 0 l0 196 l-262 0 l0 -123 l-122 0 l0 204 l384 0 l0 47 l-349 0 ZM597 387 l0 53 l191 0 l0 -53 l-191 0 ZM597 478 l0 53 l191 0 l0 -53 l-191 0 ZM212 478 l0 53 l189 0 l0 -53 l-189 0 ZM212 387 l0 53 l189 0 l0 -53 l-189 0 Z" /><glyph glyph-name="" unicode="&#x9879;" d="M374 673 l0 112 l591 0 l0 -112 l-249 0 l-17 -91 l236 0 l0 -456 l-120 0 l0 345 l-307 0 l0 -352 l-120 0 l0 463 l177 0 l17 91 l-208 0 ZM33 631 l0 121 l314 0 l0 -121 l-94 0 l0 -438 q19 4 56 13 q31 8 45 11 q-2 -77 2 -131 q-178 -46 -316 -87 l-21 143 l111 24 l0 465 l-97 0 ZM901 -116 q-85 67 -239 173 q-68 -108 -296 -182 l-63 115 q174 51 230 105 q59 51 64 164 l5 165 l122 0 l-5 -164 q-4 -53 -13 -97 q199 -125 276 -181 l-81 -98 Z" /></font>
</defs>
</svg>
